<svg xmlns="http://www.w3.org/2000/svg" viewBox="0 0 486.72 119.52">
  <path fill="none" d="M99.6 112.08v-27.6h380.64v27.6H99.6zm25.185-7.35c1.573-.11 3.065-.06 4.478-.374.912-.202 1.865-.78 2.526-1.457 3.29-3.374 6.492-6.835 9.72-10.27 1.314-1.396 2.616-2.806 4.13-4.432-1.447 0-2.562.05-3.67-.017-.833-.05-1.406.227-1.966.847-2.52 2.785-5.09 5.523-7.63 8.288-.28.305-.49.675-.732 1.015l-.368-.263v-9.775c-2.88-.314-5.432-.064-7.434 2.234-.913 1.05-2.032 1.917-3.06 2.866l-5.63 5.21c.48-2.74.895-5.174 1.346-7.602.19-1.02-.18-1.753-1.076-2.16-.606-.273-1.288-.51-1.942-.53-2.795-.085-5.604.062-8.386-.156-2.428-.19-3.197 1.72-4.504 3.083h8.974l-2.07 13.402c.93 0 1.725-.027 2.516.004 2.313.09 4.25-.623 5.948-2.283 2.57-2.51 5.29-4.868 7.95-7.286.217-.197.475-.35.88-.646v10.303zm128.975-.09c2.724 0 5.162.048 7.598-.01 5.795-.134 11.455-.995 16.772-3.445 2.35-1.082 4.467-2.518 5.99-4.656 1.874-2.63 1.252-5.076-1.616-6.543-2.174-1.11-4.524-1.635-6.932-1.667-7.033-.095-14.068-.09-21.103-.11-.303 0-.694.038-.895.222-.917.84-1.78 1.738-2.82 2.77h1.537c5.996 0 11.993-.034 17.988.025 1.422.015 2.89.176 4.252.567 2.413.694 3.108 2.82 1.67 4.88-.61.873-1.33 1.74-2.184 2.355-3.524 2.543-7.55 3.526-12.036 3.704l5.66-10.055H260.5c-2.213 3.93-4.42 7.844-6.74 11.96zm174.475 0c.734 0 1.494.047 2.247-.01 1.745-.128 3.5-.223 5.224-.506.67-.11 1.26-.692 1.885-1.06l-.178-.415h-8.275l3.492-5.88c-.35-.044-.536-.087-.723-.087-3.878-.003-7.762-.134-11.63.055-1.997.098-4.025.593-5.923 1.247-.997.344-1.906 1.3-2.56 2.192-.85 1.16-.54 2.31.685 3.084.86.548 1.853.886 2.8 1.323-.12.085-.304.226-.498.352-1.126.734-1.552 1.833-1.413 3.098.147 1.352 1.187 1.985 2.37 2.225 4.052.818 7.714.154 10.573-3.11.68-.776 1.26-1.638 1.922-2.507zm-196.63-7.86c-.46-.042-.785-.096-1.11-.097-6.477-.005-12.954-.007-19.43.003-.518 0-1.054.01-1.546.145-1.04.284-2.34.566-2.384 1.818-.026.743.786 1.516 1.317 2.443-1.37 1.32-3.35 1.586-5.638 1.626l6.834-12.13h-7.115c-2.21 3.94-4.466 7.935-6.69 11.946-.476.86-.06 1.48.772 1.796.476.18 1.01.304 1.517.295 2.755-.05 5.54.075 8.258-.286 4.12-.55 8.34-1.18 10.3-5.738 3.516 0 6.993.018 10.47-.01 1.627-.01 3.19-.27 4.442-1.81zm248.498 5.945h-8.14c.28-.555.46-.94.666-1.31.582-1.046 1.208-2.07 1.757-3.132.52-1.006.22-1.625-.886-1.813-.622-.106-1.305-.205-1.9-.062-1.655.396-3.328.795-4.902 1.423-1.74.695-3.38 1.644-5.367 2.633l2.02-3.72h-7.112c-1.46 2.596-2.9 5.154-4.336 7.702 5.355 1.242 9.41-1.945 14.03-3.964-.398.728-.646 1.182-.898 1.634-1 1.792-.68 2.433 1.392 2.495 2.436.073 4.875.053 7.312.02 1.233-.017 2.48-.068 3.693-.262.988-.16 1.997-.458 2.673-1.643zm-129.067-.138c-1.56-.405-3.077-.98-4.64-1.15-1.26-.138-2.594.12-3.854.396-.367.08-.805.812-.815 1.257-.01.358.513.946.905 1.057.984.278 2.028.466 3.05.474 5.152.046 10.307.063 15.458-.01 1.168-.017 2.348-.37 3.487-.693.452-.128.81-.593 1.21-.904-.056-.11-.11-.22-.166-.328h-7.296c2.107-2.806-.847-4.292-1.244-6.325.188-.75.447-1.585.22-2.258-.27-.8-2.58-1.35-3.353-.893-1.542.907-3.037 1.895-4.643 2.907l.663 1.62-4.745 2.593c2.057.258 4.074.544 5.75-.898 1.294 1.648 1.275 2.118.014 3.155zm-184.924-1.528c2.314 0 4.42.09 6.514-.042.954-.06 1.896-.65 2.048-1.738.16-1.156-.8-1.53-1.674-1.87-.26-.102-.53-.19-.802-.237-4.494-.768-8.988-.888-13.42.314-1.12.304-2.247.902-3.143 1.642-1.553 1.28-1.276 3.39.55 4.208 1.214.545 2.582.988 3.896 1.03 5.392.178 10.79.22 16.184.217.964 0 1.95-.375 2.884-.7.45-.16.8-.606 1.195-.924l-.16-.238h-1.313c-4.72 0-9.438.01-14.157-.01-.886-.005-1.86.093-2.483-.95l1.743-3.094h4c-.64.82-1.183 1.52-1.86 2.39zm145.987.02c2.26 0 4.218.02 6.175-.01 1.09-.017 2.27-.863 2.377-1.676.173-1.32-.812-1.69-1.774-2.03-.486-.173-.996-.37-1.5-.386-3.11-.094-6.235-.35-9.324-.123-1.89.138-3.77.924-5.57 1.636-1.157.46-1.89 1.496-1.78 2.866.11 1.37 1.11 1.985 2.255 2.35.98.31 2.01.644 3.023.668 5.43.134 10.863.206 16.296.214.925.002 1.876-.344 2.768-.663.493-.176.887-.63 1.325-.96l-.152-.244h-1.306c-4.717 0-9.434.022-14.15-.02-.816-.007-1.63-.283-2.776-.497l1.98-3.487h4.015c-.647.807-1.182 1.48-1.884 2.363zm76.142 1.655l3.345-6h-7.15c-.976 1.73-1.958 3.464-2.933 5.2-.89 1.584-.516 2.364 1.264 2.644.314.05.638.057.956.058 2.72.004 5.44.068 8.156-.03 1.09-.04 2.19-.376 3.244-.707.446-.14.79-.61 1.182-.93l-.168-.234h-7.896zm1.095-7.656c1.483-.522 2.947-.833 4.2-1.525 1.475-.814 1.406-2.306.053-3.31-2.076-1.538-6.46-1.546-8.54-.015-1.368 1.01-1.463 2.48.007 3.3 1.282.716 2.79 1.03 4.28 1.55z"/>
  <path fill-rule="evenodd" d="M124.785 104.73v-10.3c-.404.294-.662.447-.88.645-2.66 2.418-5.378 4.776-7.95 7.287-1.7 1.66-3.634 2.373-5.947 2.283-.792-.03-1.585-.005-2.516-.005l2.07-13.402h-8.974c1.307-1.362 2.076-3.274 4.504-3.083 2.782.22 5.59.07 8.386.156.655.02 1.336.258 1.942.532.895.406 1.265 1.14 1.076 2.16-.45 2.427-.864 4.86-1.347 7.6 2.017-1.866 3.824-3.537 5.63-5.21 1.027-.948 2.147-1.816 3.06-2.865 2-2.3 4.554-2.55 7.434-2.234v9.775l.368.263c.242-.34.45-.71.73-1.014 2.542-2.765 5.113-5.503 7.632-8.288.56-.62 1.133-.896 1.967-.846 1.108.066 2.223.017 3.67.017-1.514 1.625-2.815 3.034-4.13 4.432-3.228 3.434-6.43 6.895-9.72 10.268-.662.678-1.615 1.255-2.527 1.457-1.412.312-2.905.262-4.478.374zM253.76 104.64l6.742-11.96h7.143l-5.66 10.054c4.484-.178 8.51-1.16 12.035-3.705.853-.617 1.573-1.483 2.183-2.355 1.44-2.062.744-4.187-1.67-4.88-1.36-.393-2.83-.554-4.25-.568-5.996-.06-11.993-.025-17.99-.025h-1.536c1.04-1.03 1.903-1.93 2.82-2.77.2-.184.592-.223.894-.222 7.035.02 14.07.016 21.104.11 2.407.032 4.758.556 6.932 1.667 2.868 1.467 3.49 3.913 1.617 6.542-1.524 2.138-3.642 3.573-5.99 4.655-5.318 2.45-10.98 3.312-16.773 3.446-2.438.058-4.876.01-7.6.01zM428.235 104.64c-.662.87-1.242 1.732-1.922 2.51-2.86 3.263-6.52 3.927-10.574 3.108-1.184-.24-2.223-.873-2.37-2.225-.14-1.265.286-2.363 1.412-3.098.194-.126.38-.267.5-.352-.948-.438-1.94-.775-2.803-1.322-1.225-.774-1.534-1.922-.686-3.083.653-.894 1.562-1.85 2.56-2.192 1.897-.654 3.926-1.15 5.923-1.247 3.868-.188 7.752-.058 11.63-.055.187 0 .373.043.722.086l-3.493 5.88h8.275l.18.415c-.627.366-1.217.948-1.886 1.06-1.723.282-3.48.377-5.224.506-.753.057-1.513.01-2.247.01zm-9.718-2.614c1.01 1.122 2.19.86 3.37.867l2.417-4.236h-3.98l-1.807 3.37zm2.314 3.055c-1.49.074-3.03 1.155-3.18 2.186-.11.758.294 1.163 1.057 1.343l2.124-3.53zM231.604 96.78c-1.252 1.54-2.815 1.8-4.44 1.81-3.478.027-6.956.01-10.47.01-1.96 4.557-6.183 5.188-10.3 5.737-2.72.36-5.503.235-8.26.286-.505.01-1.04-.114-1.516-.295-.83-.315-1.248-.937-.772-1.796 2.224-4.012 4.48-8.006 6.69-11.947h7.114c-2.3 4.08-4.52 8.02-6.834 12.13 2.287-.04 4.268-.306 5.638-1.624-.53-.927-1.343-1.7-1.317-2.442.045-1.252 1.343-1.534 2.383-1.817.492-.134 1.03-.144 1.545-.144 6.478-.01 12.955-.008 19.432-.003.323.002.648.055 1.107.096zM480.103 102.725c-.676 1.186-1.685 1.484-2.673 1.643-1.215.193-2.46.245-3.693.262-2.438.033-4.877.054-7.312-.02-2.072-.063-2.39-.704-1.392-2.496.252-.452.5-.906.9-1.633-4.62 2.02-8.677 5.207-14.032 3.965l4.337-7.7h7.11l-2.017 3.718c1.987-.99 3.626-1.938 5.367-2.632 1.574-.627 3.247-1.026 4.9-1.422.598-.143 1.28-.044 1.903.062 1.104.188 1.406.808.886 1.813-.55 1.062-1.175 2.086-1.758 3.13-.206.37-.385.757-.665 1.312h8.14zM351.036 102.587c1.262-1.037 1.28-1.507-.013-3.157-1.677 1.442-3.694 1.156-5.75.898l4.744-2.594-.663-1.62c1.605-1.012 3.1-2 4.643-2.907.773-.456 3.083.092 3.354.893.228.673-.032 1.51-.22 2.258.397 2.033 3.352 3.52 1.244 6.325h7.297c.057.11.11.22.166.328-.4.313-.757.777-1.21.905-1.14.322-2.318.677-3.486.693-5.15.073-10.306.056-15.458.01-1.02-.007-2.065-.194-3.05-.473-.393-.11-.914-.698-.905-1.057.01-.444.448-1.177.815-1.257 1.26-.273 2.595-.532 3.855-.394 1.56.17 3.08.746 4.64 1.15zM166.112 101.06l1.86-2.393h-4c-.577 1.024-1.16 2.062-1.743 3.095.622 1.042 1.596.944 2.482.948 4.72.02 9.438.01 14.157.01h1.31l.162.24c-.395.317-.745.765-1.195.923-.933.326-1.92.7-2.884.7-5.395.003-10.792-.038-16.183-.215-1.314-.043-2.682-.486-3.897-1.03-1.825-.82-2.102-2.93-.55-4.21.897-.74 2.024-1.338 3.145-1.642 4.43-1.202 8.926-1.082 13.42-.314.272.047.542.136.8.236.876.34 1.836.715 1.675 1.87-.15 1.09-1.094 1.68-2.048 1.74-2.092.132-4.2.04-6.513.04zM312.1 101.08c.7-.883 1.236-1.557 1.88-2.365h-4.016c-.546.962-1.16 2.048-1.98 3.487 1.147.214 1.96.49 2.777.497 4.718.04 9.435.02 14.15.02h1.308l.152.245c-.438.33-.832.783-1.325.96-.892.318-1.843.664-2.77.662-5.432-.008-10.864-.08-16.295-.214-1.015-.024-2.042-.357-3.024-.67-1.144-.362-2.146-.978-2.255-2.348-.107-1.37.624-2.406 1.78-2.865 1.8-.712 3.68-1.498 5.57-1.636 3.09-.226 6.216.03 9.325.123.504.016 1.014.213 1.5.385.963.34 1.947.71 1.774 2.03-.106.813-1.29 1.66-2.378 1.677-1.954.03-3.912.01-6.173.01zM388.242 102.735h7.896c.056.078.11.156.168.234-.39.32-.735.79-1.182.93-1.055.33-2.153.668-3.244.707-2.716.1-5.437.034-8.156.03-.318 0-.642-.01-.956-.06-1.78-.278-2.152-1.06-1.264-2.642.975-1.737 1.957-3.47 2.934-5.2h7.15c-1.123 2.01-2.18 3.908-3.346 6zM389.337 95.08c-1.49-.522-2.998-.834-4.28-1.55-1.47-.818-1.375-2.29-.006-3.3 2.08-1.53 6.464-1.523 8.54.015 1.354 1.004 1.422 2.495-.053 3.31-1.252.692-2.716 1.004-4.2 1.524z" clip-rule="evenodd"/>
  <path fill="none" d="M418.517 102.026l1.808-3.37h3.98l-2.42 4.237c-1.178-.006-2.357.255-3.368-.867zM420.83 105.08l-2.123 3.528c-.763-.18-1.168-.585-1.058-1.343.148-1.03 1.688-2.11 3.18-2.184z" clip-rule="evenodd"/>
  <g>
    <path fill="none" d="M397.077 37.44h84.96v42.12H177.12l5.948-3.04c.605 1.89 2.305 2.255 4.103 2.294 3.06.067 6.12.017 9.178.04 3.08.024 6.2.252 8.855-2.32-.153.976-.25 1.59-.327 2.09 5.12 1.04 9.297-.438 12.92-3.968 2.344-2.28 4.925-4.317 7.4-6.464-.037 1.253-.346 2.328-.67 3.4-.326 1.09-.718 2.16-.992 3.263-.605 2.43.26 3.835 2.752 3.908 4.614.137 9.24.172 13.85-.012 3.217-.127 5.436-1.993 6.008-4.575h-11.84c.337-1.13.61-2.1.912-3.057.845-2.685 1.745-5.352 2.544-8.05 1.146-3.865-.564-5.93-4.45-4.924-2.29.593-4.524 1.86-6.455 3.272-2.854 2.09-5.417 4.577-8.104 6.895l-.254-.2 2.797-8.963h-10.49l-4.69 14.944h-12.167l4.813-15.05c-5.67 0-11.126-.025-16.58.004-9.602.052-14.9 5.44-14.736 15.02h-12.08c.22-.686.375-1.255.58-1.806 1.62-4.316 3.256-8.627 4.87-12.945.607-1.626 1.282-3.24 1.728-4.91.973-3.648-1.32-6.344-5.032-5.683-1.464.26-2.955 1.23-4.104 2.246-4.435 3.926-8.737 8.003-13.088 12.023-.16-.882-.01-1.554.195-2.21 1.38-4.397 2.79-8.786 4.152-13.19 1.148-3.71-.954-6.016-4.805-5.374-2.202.367-3.813 1.586-5.237 3.216-4.142 4.744-8.32 9.455-12.49 14.174-.278.313-.605.582-1.218 1.165 2.002-6.444 3.875-12.437 5.724-18.437.84-2.73.525-3.578-1.717-4.896h124.92l-4.07 7.572h2.095c8.994 0 17.988-.036 26.982.013 6.37.034 10.138 3.838 9.87 10.196-.28 6.6-3.194 12.067-7.942 16.58-.556.53-1.25.937-1.934 1.3-4.74 2.51-9.1.454-10.235-4.79-.71-3.278-.182-6.43.91-9.53 1.288-3.652 3.352-6.824 6.295-9.73h-12.827c-2.615 3.125-4.464 6.666-5.452 10.613-2.317 9.25 2.1 16.98 10.8 19.025 13.942 3.28 30.388-8.393 31.97-22.692 1.074-9.69-2.714-15.454-11.667-17.722-1.27-.32-2.56-.56-3.837-.836h74.52c-.516.128-1.026.278-1.547.38-5.973 1.188-11.085 3.69-13.684 9.59-3.188 7.243-.466 14.054 6.52 16.16 2.188.66 4.618.89 6.907.767 4.883-.266 8.038-3.89 7.414-8.083-.473-3.175-3.042-5.643-6.405-6.15-3.54-.534-7.13 1.233-8.614 4.246-.253.515-.488 1.038-.73 1.558l-.503-.007c-.126-1.074-.436-2.164-.345-3.22.34-3.946 3.983-7.376 8.542-7.57 5.68-.242 11.375-.058 17.27-.058l-9.107 28.898c-4.535-.75-8.848-1.44-13.15-2.19-1.798-.316-3.467-.052-4.544 1.428-1.21 1.658-2.123 3.53-3.312 5.562.968.052 1.435.098 1.9.098 6.178.005 12.355.026 18.534-.005 6.507-.032 10.382-2.865 12.48-9.066.667-1.977 1.298-3.965 1.98-6.06.706 0 1.36.028 2.013-.004 2.03-.1 4.09-.047 6.08-.385 2.22-.377 3.223-1.783 3.492-4.29h-10.09l4.417-14.21h11.76c-.646 4.19.72 6.993 4.247 8.5 3.524 1.508 7.7.492 9.913-2.41 1.8-2.363 1.775-5.71-.11-8.004-1.526-1.86-3.525-2.805-5.93-2.957-2.415-.152-4.48.736-6.57 1.935.972-1.485 1.948-2.97 2.924-4.453zm-4.184 21.683c-1.54 4.9-3.095 9.685-4.54 14.5-.984 3.28.413 5.155 3.82 5.206 3.537.05 7.078-.054 10.615.026 3.71.084 6.755-.904 8.26-4.685.443 0 .8.005 1.156 0 3.543-.044 3.946-.326 5.27-3.68l2.64-6.694h5.62c.032.17.1.298.07.397-.933 3.032-1.912 6.05-2.807 9.095-1.044 3.554.39 5.502 4.055 5.542 3.238.035 6.48-.07 9.716.03 3.42.106 6.404-.577 7.937-3.35 2.368.972 4.51 2.52 6.728 2.64 8.124.45 16.277.587 24.416.497 3.013-.033 5.014-2.135 5.375-4.49h-1.973c-6.657 0-13.315.014-19.974-.014-.948-.004-1.92-.104-2.837-.336-1.312-.33-1.907-1.304-1.514-2.603.758-2.503 1.637-4.97 2.435-7.358h6.11l-3.046 6.004c2.896 0 5.472.002 8.048 0 2.37-.003 4.3-1.718 4.602-4.09.33-2.588-.813-4.656-3.81-5.53-6.534-1.908-13.175-2.17-19.464.81-1.987.943-3.782 2.78-5.053 4.63-1.706 2.482-1.564 5.447-.394 8.395h-11.808c1.564-5.024 3.095-9.938 4.7-15.087H421.68c.822-2.442 1.58-4.696 2.4-7.138-3.554.09-6.977-.442-10.21 1.1-2.935 1.397-4.288 3.678-3.843 6.607.342 2.25 1.894 3.492 3.882 4.32-1.28 3.48-2.515 6.843-3.742 10.184h-11.314c1.59-5.027 3.137-9.918 4.72-14.93-3.608.003-7.06.003-10.68.003zm-74.7 8.966c.044.413.094.54.062.643-.56 1.832-1.146 3.655-1.692 5.49-.937 3.148.066 4.558 3.39 4.604 4.078.057 8.166.158 12.233-.06 1.654-.09 3.38-.764 4.857-1.57.96-.523 1.53-1.765 2.274-2.684l-.354-.407h-11.8c.74-2.332 1.447-4.483 2.102-6.65.59-1.946 1.295-3.88 1.63-5.873.414-2.455-.728-3.61-3.195-3.62-3.04-.01-5.557 1.278-7.8 3.214-2.766 2.384-5.526 4.77-8.706 7.518l2.99-9.574H303.68l-6.082 19.514c4.832.854 8.93-.103 12.443-3.436 2.558-2.427 5.31-4.647 8.152-7.11z"/>
    <path fill-rule="evenodd" d="M124.92 37.44c2.24 1.318 2.557 2.164 1.715 4.895-1.85 6-3.722 11.994-5.724 18.438.613-.583.94-.852 1.218-1.165 4.17-4.72 8.35-9.43 12.49-14.174 1.425-1.63 3.037-2.85 5.238-3.216 3.85-.642 5.953 1.663 4.805 5.375-1.36 4.403-2.77 8.792-4.15 13.19-.207.655-.356 1.327-.196 2.208 4.352-4.02 8.653-8.096 13.088-12.022 1.15-1.017 2.64-1.985 4.104-2.246 3.713-.66 6.004 2.034 5.032 5.682-.446 1.67-1.12 3.284-1.728 4.91-1.613 4.32-3.25 8.63-4.87 12.946-.205.55-.36 1.12-.58 1.806h12.08c-.165-9.58 5.135-14.968 14.736-15.02 5.455-.03 10.91-.005 16.58-.005-1.625 5.077-3.2 10.007-4.814 15.053h12.166c1.555-4.954 3.11-9.905 4.69-14.944h10.49l-2.796 8.96.255.203c2.687-2.317 5.25-4.806 8.104-6.895 1.932-1.412 4.167-2.68 6.457-3.272 3.884-1.006 5.595 1.06 4.45 4.924-.8 2.698-1.7 5.365-2.545 8.05-.3.958-.574 1.926-.91 3.057h11.838c-.572 2.582-2.79 4.448-6.007 4.576-4.61.184-9.237.148-13.85.012-2.492-.073-3.358-1.478-2.753-3.908.274-1.102.666-2.174.993-3.263.323-1.072.632-2.147.67-3.4-2.476 2.146-5.057 4.183-7.4 6.464-3.625 3.53-7.803 5.007-12.92 3.967l.326-2.09c-2.657 2.573-5.776 2.346-8.856 2.322-3.06-.024-6.12.026-9.177-.04-1.798-.04-3.497-.406-4.103-2.296-1.993 1.02-3.97 2.03-5.948 3.04h-3.96l-5.502-3.654c-.952 1.535-2.722 2.63-4.834 2.698-4.967.164-9.95.27-14.91.055-2.736-.12-3.586-1.76-2.726-4.424.717-2.22 1.62-4.38 2.44-6.563.75-1.994 1.502-3.987 2.344-6.223-.473.197-.667.222-.775.33-5.11 5.14-10.256 10.245-15.296 15.454-1.857 1.92-4.053 2.576-6.113 1.415-1.517-.855-1.848-2.554-1.03-5.163 1.737-5.54 3.47-11.084 5.195-16.628.14-.45.22-.92.328-1.378-6.005 6.878-11.705 13.905-17.542 20.815-.932 1.104-2.39 2.115-3.767 2.405-1.94.408-4.032.104-6.232.104l10.53-33.89h-14.84l3.968-7.476h20.523zm58.525 36.77l3.252-10.39h-6.01c-.704 2.276-1.457 4.48-2.057 6.726-.493 1.844.165 2.814 2.07 3.263.855.2 1.744.26 2.745.4zM397.077 37.44l-2.928 4.45c2.088-1.197 4.153-2.085 6.567-1.934 2.405.15 4.404 1.097 5.932 2.957 1.884 2.294 1.91 5.642.108 8.003-2.214 2.903-6.39 3.918-9.912 2.412-3.527-1.508-4.894-4.31-4.246-8.5h-11.76c-1.498 4.816-2.93 9.417-4.418 14.21h10.09c-.27 2.506-1.273 3.912-3.492 4.29-1.99.337-4.05.283-6.08.384-.652.032-1.307.005-2.012.005-.684 2.094-1.314 4.082-1.982 6.06-2.098 6.2-5.973 9.033-12.48 9.065-6.178.03-12.355.01-18.533.005-.466 0-.933-.046-1.9-.098 1.188-2.033 2.103-3.905 3.31-5.563 1.078-1.48 2.747-1.744 4.546-1.43 4.3.753 8.613 1.44 13.148 2.192l9.108-28.9c-5.896 0-11.592-.183-17.27.06-4.56.193-8.202 3.623-8.543 7.57-.09 1.055.22 2.145.345 3.218l.502.007c.243-.52.48-1.043.73-1.558 1.484-3.013 5.074-4.78 8.614-4.246 3.363.51 5.933 2.976 6.405 6.15.623 4.194-2.532 7.818-7.416 8.084-2.29.124-4.72-.106-6.907-.767-6.985-2.105-9.708-8.917-6.52-16.16 2.6-5.9 7.71-8.402 13.684-9.59.522-.102 1.032-.252 1.548-.38 13.92.002 27.84.002 41.76.002zM280.798 37.44c1.278.276 2.567.514 3.836.835 8.953 2.27 12.74 8.032 11.668 17.722-1.583 14.3-18.028 25.972-31.972 22.692-8.7-2.046-13.116-9.775-10.8-19.026.99-3.947 2.838-7.487 5.453-10.614h12.827c-2.943 2.907-5.007 6.08-6.294 9.73-1.093 3.1-1.622 6.252-.912 9.532 1.136 5.243 5.494 7.3 10.235 4.788.683-.362 1.377-.77 1.933-1.298 4.748-4.514 7.663-9.98 7.94-16.582.27-6.358-3.497-10.162-9.868-10.196-8.994-.048-17.988-.013-26.982-.014h-2.096l4.07-7.572h30.96z" clip-rule="evenodd"/>
    <path fill="none" d="M104.4 37.44l-3.968 7.476h14.84l-10.53 33.89c2.2 0 4.29.304 6.23-.105 1.377-.29 2.836-1.3 3.768-2.404 5.837-6.91 11.536-13.938 17.542-20.815-.108.46-.188.928-.33 1.378-1.725 5.544-3.457 11.087-5.194 16.628-.818 2.61-.487 4.308 1.03 5.162 2.06 1.16 4.256.504 6.113-1.415 5.04-5.21 10.187-10.314 15.297-15.453.108-.11.302-.134.775-.33-.842 2.234-1.595 4.228-2.344 6.222-.822 2.185-1.724 4.345-2.44 6.563-.86 2.664-.01 4.304 2.727 4.423 4.96.217 9.942.11 14.91-.055 2.11-.07 3.88-1.163 4.833-2.698l5.502 3.655h-73.08V37.44h4.32z" clip-rule="evenodd"/>
    <path fill-rule="evenodd" d="M392.893 59.123h10.684l-4.72 14.93h11.313c1.228-3.34 2.462-6.702 3.74-10.184-1.987-.83-3.54-2.072-3.88-4.32-.446-2.93.907-5.21 3.84-6.61 3.235-1.54 6.658-1.01 10.213-1.098-.82 2.442-1.58 4.696-2.4 7.138h15.563l-4.7 15.087h11.81c-1.172-2.947-1.313-5.912.393-8.396 1.27-1.848 3.064-3.685 5.052-4.627 6.29-2.982 12.93-2.72 19.465-.812 2.995.876 4.14 2.944 3.81 5.533-.304 2.37-2.23 4.086-4.603 4.088-2.576.004-5.152.002-8.048.002 1.05-2.066 2-3.943 3.047-6.004h-6.11c-.798 2.39-1.677 4.855-2.435 7.358-.394 1.3.2 2.27 1.515 2.603.917.23 1.89.33 2.837.335 6.658.027 13.316.015 19.974.015h1.973c-.36 2.354-2.362 4.456-5.376 4.49-8.138.09-16.29-.047-24.415-.497-2.22-.122-4.36-1.67-6.728-2.642-1.532 2.774-4.517 3.458-7.937 3.352-3.236-.102-6.478.005-9.716-.03-3.666-.04-5.1-1.988-4.055-5.542.894-3.044 1.873-6.062 2.806-9.095.03-.1-.038-.23-.07-.397h-5.62c-.886 2.246-1.762 4.47-2.64 6.693-1.324 3.355-1.728 3.638-5.27 3.682-.356.005-.713 0-1.155 0-1.505 3.78-4.55 4.77-8.26 4.686-3.537-.08-7.078.024-10.616-.027-3.406-.05-4.804-1.924-3.82-5.205 1.444-4.817 3-9.602 4.54-14.502zM318.192 68.09c-2.84 2.46-5.594 4.682-8.15 7.107-3.516 3.333-7.612 4.29-12.444 3.436l6.082-19.513h10.507c-.96 3.072-1.896 6.066-2.99 9.574 3.18-2.746 5.94-5.134 8.704-7.518 2.245-1.936 4.76-3.224 7.802-3.213 2.468.01 3.61 1.164 3.195 3.62-.335 1.992-1.04 3.926-1.63 5.87-.654 2.17-1.362 4.32-2.103 6.652h11.8c.12.136.236.27.355.407-.745.92-1.314 2.16-2.275 2.684-1.477.807-3.203 1.48-4.857 1.57-4.067.218-8.155.116-12.234.06-3.322-.046-4.325-1.455-3.39-4.603.548-1.836 1.134-3.66 1.693-5.49.03-.103-.02-.23-.065-.644z" clip-rule="evenodd"/>
    <path fill="none" d="M183.445 74.21c-1-.14-1.89-.2-2.746-.4-1.905-.45-2.563-1.42-2.07-3.264.6-2.245 1.353-4.45 2.057-6.727h6.01c-1.088 3.478-2.146 6.86-3.252 10.39z" clip-rule="evenodd"/>
  </g>
  <g>
    <path fill="none" d="M60.064 39.952l-.257-.308c-.304-.226-.66-.695-.903-.642-5.747 1.27-5.438-2.71-5.545-6.338.365-1.688.434-3.516 1.15-5.04 3.27-6.967 5.223-14.057 2.937-21.747-.125-.418-.37-.8-.56-1.2-.058.15-.17.3-.166.446.303 10.608-6.32 18.135-11.664 26.23-3.515 2.564-3.477 8.034-2.442 9.664 5.24 8.265 15.84 13.304 14.572 25.394-3.172 6.695-6.125 13.4-1.1 20.533.204.702.314 1.447.623 2.1 2.51 5.304 7.365 10.833-1.547 14.936-.49.226-1.092.212-1.643.31.397-.318.827-.606 1.185-.965.953-.958 1.874-1.947 2.808-2.924-1.027.414-2.026 1.063-3.088 1.194-2.81.352-5.666.766-8.472.61-2.712-.147-2.687-.444-2.826 1.58-.005.074-.765.246-.834.144-1.283-1.897-6.762-.507-3.96-6.016 1-1.97.044-5.842.826-8.8 1.627-2.31 3.254-4.614 4.88-6.922 2.07-3.38 3.388-7.893.37-10.204-4.92-3.77-5.768-8.717-6.874-13.922l.162-1.734c-.468.27-1.007.465-1.394.824-2.876 2.663-4.752 5.852-5.028 9.85-1.003 1.873-.13 3.377.762 5.033 1.773 3.29 4.916 6.517-1.634 8.962-3 1.12-6.295-1.947-8.82 1.432-.477.637-1.265-1.68-1.356-4.088-.358-9.4 5.968-15.11 11.892-20.404 7.128-6.37 8.837-13.562 6.883-22.31-.643-3.78-1.273-7.565-1.954-11.34-.056-.307-.458-.55-.7-.82-.077.37-.28.767-.216 1.112 1.64 8.635-1.177 16.153-5.603 23.365-5.054 8.237-13.65 12.96-19.7 20.198C.2 80.865 1.77 94.247 15.105 104.02c17.67 12.948 50.414 13.83 68.74 1.85 16.778-10.97 18.17-27.37 3.435-40.98-5.005-4.625-8.328-10.077-8.936-16.987-.09-1.04-.2-2.077-.3-3.115-.523 1.028-1.045 2.054-1.57 3.082-5.228 4.726-2.455 17.93 3.978 23.23 3.576 2.948 6.385 7.325 5.386 12.72-.086.46-.756.814-1.155 1.218.002-.503.083-1.02-.01-1.508-.306-1.637-.674-3.26-1.02-4.89-.28 1.03-.465 2.096-.855 3.08-2.165 5.48-8.56 5.82-11.703 5.288-4.538-.77-8.485-5.482-7.977-11.565 1.146-5.135 4.917-9.818 2.666-15.537-1.54-6.678 2.13-12.39 3.44-18.54-.298-2.017-.173-4.222-.973-6.015-2.51-5.632-6.075-10.937-4.203-17.6.047-.167-.096-.388-.15-.584-.42.426-.898.81-1.247 1.286-4.067 5.567-2.257 11.186-.113 16.8-.823 1.567-1.648 3.134-2.473 4.7z"/>
    <path fill="#F95A05" fill-rule="evenodd" d="M31.275 67.004c.276-3.997 2.15-7.186 5.028-9.85.387-.358.926-.553 1.394-.823l-.162 1.735c-1.197 2.817-1.483 5.707-.18 8.524 2.374 5.14 8.18 8.8 6.685 15.6-1.627 2.31-3.254 4.614-4.882 6.922-3.724 2.998-7.586 6.413-4.202 11.477 4.113 6.152 10.827 6.574 17.51 5.798 4.122-.48 8.426-1.494 9.905-5.983 2.04-6.188-2.72-9.644-6.283-13.46-5.026-7.133-2.073-13.838 1.1-20.532.275-.223.683-.39.81-.68 3.387-7.755-1.546-12.842-6.147-17.66-4.58-4.792-9.092-9.275-6.793-16.718 5.345-8.096 11.966-15.622 11.665-26.23-.004-.146.108-.297.165-.445.19.4.437.78.56 1.2 2.287 7.69.333 14.78-2.937 21.746-.716 1.524-.784 3.352-1.15 5.04-1.567 2.6-1.046 5.15.796 7.194 2 2.22 4.794 2.28 7.252.87 2.126-1.22 1.984-3.39 1.132-5.478-2.144-5.615-3.954-11.233.113-16.8.35-.48.828-.86 1.246-1.287.054.196.197.417.15.585-1.872 6.662 1.692 11.967 4.204 17.6.8 1.793.675 3.998.973 6.014-4.638 5.534-7.808 11.338-3.44 18.54 2.25 5.72-1.52 10.403-2.666 15.536-1.485 5.106-.66 9.757 4.172 12.408 6.007 3.3 12.652 4.33 18.268-.508 4.605-3.97 2.302-8.95-.41-12.996-5.408-8.065-10.904-15.965-8.673-26.476l1.57-3.082c.1 1.038.207 2.076.3 3.115.606 6.91 3.93 12.363 8.935 16.987 14.737 13.61 13.344 30.013-3.436 40.98-18.325 11.98-51.068 11.1-68.74-1.85C1.772 94.248.202 80.865 10.83 68.148c6.05-7.24 14.646-11.962 19.7-20.2 4.427-7.21 7.243-14.73 5.604-23.364-.065-.346.14-.74.217-1.113.24.27.642.515.697.82.68 3.775 1.31 7.56 1.953 11.338-.49 10.34-5.727 18.353-12.223 25.943-3.37 3.94-6.32 8.373-8.74 12.962-2.732 5.18-.546 8.678 5.143 9.738 4.598.858 9.25.415 11.917-3.8 3.49-5.516-2.393-8.99-3.822-13.466zm26.61 44.78c3.522-.59 8.697-1.078 13.667-2.36 14.615-3.77 24.534-15.924 22.89-27.68-1.22-8.725-8.48-13.507-13.12-20.01-1.35-1.89-1.976-4.303-2.932-6.476-.288 3.523.788 6.663 2.707 9.56.412.623.867 1.217 1.312 1.817 9.644 12.99 11.237 21.03 5.07 28.577-9.68 11.84-23.038 14.47-37.39 14.065-2.958-.084-5.9-.775-8.85-1.188 3.285 1.058 6.538 2.238 9.87 3.122 1.637.434 3.42.316 6.774.572zm-17.112-34.07c-.153-.326-1-2.136-1.85-3.945-.14.194-.442.448-.397.58 2.977 8.557-4.16 9.94-9.095 12.975-5.36 3.3-11.663 6.62-7.024 14.413 3.884 6.523 10.962 8.367 17.913 9.812 2.496.52 5.1.534 7.653.78-2.306-.732-4.617-1.453-6.916-2.206-.928-.305-1.853-.632-2.742-1.03-12.564-5.638-13.542-13.226-2.812-21.677 2.645-2.084 5.76-3.86 5.27-9.703zm23.824 27.803c4.306-1.643 10.013-1.696 11.59-7.223 1.07-3.748-2.73-5.255-5.453-6.526-11.926-5.57-14.43-11.156-10.34-23.694.157-.485.125-1.033.183-1.552-.457.39-1.058.694-1.346 1.184-5.61 9.53-3.662 17.807 5.558 23.76 9.007 5.82 8.936 8.133-.405 13.26-.237.13-.445.313-.667.47.235.083.472.17.88.32zM9.092 80.36c-.024 7.794 7.077 11.598 12.797 8.383.134-.075.236-.21.353-.317-.163-.1-.314-.244-.492-.292-9.693-2.646-11.87-8.07-5.707-16.85 5.147-7.334 11.414-13.877 17.115-20.828.597-.73.717-1.85 1.06-2.787-.6.698-1.175 1.425-1.805 2.096-3.062 3.257-6.012 6.63-9.236 9.717C16.59 65.79 9.897 71.973 9.092 80.36zm45.664-37.036c.79-.155 1.84-.365 2.888-.574-.906-.167-1.813-.325-2.718-.5-4.597-.9-5.58-4.258-4.45-7.944 1.53-4.99 3.837-9.742 5.773-14.61.208-.528.167-1.154.243-1.734-.314.154-.776.224-.92.476-2.548 4.476-5.57 8.77-7.447 13.518-2.283 5.774-1.69 10.845 6.63 11.368zm12.448-6.42c-.44-.807-1.246-2.462-2.226-4.006-.54-.853-1.373-1.52-2.073-2.268.324.88.642 1.763.975 2.64 1.574 4.168 1.26 7.88-2.582 10.743-4.094 3.052-4.77 6.77-2.147 11.112.286.472.735.845 1.108 1.264-.005-.5.074-1.017-.032-1.494-.883-3.997.066-7.327 3.302-10.004 2.138-1.77 3.63-3.986 3.676-7.99z" clip-rule="evenodd"/>
    <path fill="#181146" fill-rule="evenodd" d="M76.476 47.868c-2.23 10.51 3.265 18.41 8.673 26.476 2.71 4.045 5.015 9.027.41 12.996-5.616 4.84-12.262 3.807-18.27.508-4.83-2.65-5.656-7.302-4.17-12.408-.508 6.085 3.44 10.798 7.977 11.567 3.142.533 9.538.19 11.703-5.287.39-.985.576-2.052.856-3.08.345 1.63.712 3.252 1.02 4.89.09.485.01 1.004.01 1.507.398-.403 1.068-.757 1.154-1.22 1-5.393-1.81-9.77-5.386-12.717-6.434-5.303-9.207-18.506-3.978-23.232zM31.275 67.004c1.43 4.477 7.313 7.95 3.82 13.466-2.667 4.216-7.317 4.66-11.916 3.8-5.69-1.06-7.876-4.558-5.144-9.737 2.42-4.59 5.37-9.02 8.74-12.96C33.272 53.98 38.51 45.966 39 35.627c1.955 8.75.246 15.94-6.882 22.312-5.924 5.294-12.25 11.003-11.892 20.404.09 2.41.88 4.725 1.355 4.088 2.527-3.38 5.824-.312 8.822-1.433 6.55-2.446 3.408-5.672 1.634-8.963-.892-1.655-1.764-3.16-.76-5.033zM56.087 86.944c3.562 3.816 8.323 7.272 6.284 13.46-1.478 4.49-5.782 5.505-9.904 5.983-6.683.776-13.397.354-17.51-5.8-3.385-5.062.478-8.478 4.202-11.476-.782 2.96.175 6.83-.827 8.802-2.8 5.51 2.68 4.118 3.962 6.016.07.103.83-.07.834-.144.14-2.024.114-1.728 2.826-1.58 2.807.155 5.662-.26 8.472-.61 1.062-.132 2.06-.78 3.088-1.193-.934.978-1.855 1.967-2.808 2.925-.358.358-.787.646-1.185.966.55-.098 1.15-.084 1.642-.31 8.912-4.104 4.057-9.633 1.546-14.937-.308-.65-.418-1.397-.62-2.1zm-12.545 17.153c-.035-.02-.07-.038-.103-.058l-.01.212c.037-.016.084-.023.104-.05.017-.023.003-.07.008-.105zM45.056 31.354c-2.3 7.442 2.214 11.926 6.793 16.72 4.6 4.816 9.533 9.903 6.145 17.658-.126.29-.534.457-.81.68 1.268-12.09-9.33-17.13-14.572-25.394-1.033-1.63-1.072-7.1 2.443-9.664z" clip-rule="evenodd"/>
    <path fill="#181146" fill-rule="evenodd" d="M44.04 82.19c1.496-6.8-4.31-10.46-6.685-15.6-1.303-2.818-1.017-5.708.18-8.525 1.105 5.205 1.955 10.152 6.875 13.922 3.017 2.312 1.7 6.824-.37 10.204zM65.786 59.904c-4.368-7.203-1.198-13.007 3.44-18.54-1.31 6.15-4.978 11.863-3.44 18.54zM62.54 35.252c.85 2.088.994 4.257-1.133 5.477-2.458 1.41-5.252 1.35-7.252-.87-1.842-2.045-2.363-4.594-.796-7.194.107 3.628-.203 7.61 5.544 6.338.242-.054.6.416.903.642l-.463.312.72-.005 2.475-4.7z" clip-rule="evenodd"/>
    <path fill="#CF0600" fill-rule="evenodd" d="M57.884 111.784c-3.355-.256-5.138-.14-6.774-.57-3.332-.884-6.584-2.064-9.868-3.123 2.95.413 5.89 1.105 8.85 1.19 14.352.403 27.71-2.226 37.388-14.066 6.168-7.548 4.575-15.587-5.07-28.577-.445-.6-.9-1.194-1.312-1.818-1.92-2.897-2.995-6.036-2.707-9.56.958 2.173 1.582 4.585 2.932 6.477 4.64 6.502 11.902 11.284 13.12 20.01 1.645 11.755-8.274 23.907-22.89 27.68-4.97 1.28-10.145 1.766-13.668 2.357z" clip-rule="evenodd"/>
    <path fill="#FDD400" fill-rule="evenodd" d="M40.773 77.714c.488 5.842-2.625 7.62-5.27 9.702-10.73 8.45-9.753 16.04 2.81 21.677.89.398 1.815.726 2.743 1.03 2.3.753 4.61 1.474 6.916 2.206-2.554-.247-5.157-.263-7.654-.78-6.95-1.445-14.03-3.29-17.913-9.813-4.64-7.792 1.664-11.114 7.025-14.413 4.934-3.035 12.072-4.418 9.095-12.976-.045-.13.257-.385.398-.58.85 1.81 1.698 3.62 1.85 3.946zM64.597 105.517l-.882-.323c.222-.156.43-.34.667-.468 9.34-5.128 9.412-7.44.405-13.26-9.22-5.954-11.168-14.23-5.557-23.76.288-.49.89-.796 1.346-1.185-.058.52-.025 1.067-.184 1.553-4.09 12.538-1.585 18.123 10.34 23.694 2.724 1.27 6.524 2.778 5.454 6.526-1.576 5.527-7.283 5.58-11.59 7.224z" clip-rule="evenodd"/>
    <path fill="#CF0600" fill-rule="evenodd" d="M9.092 80.36c.806-8.387 7.5-14.57 14.086-20.878 3.224-3.087 6.174-6.46 9.236-9.717.63-.67 1.204-1.397 1.804-2.097-.342.938-.462 2.058-1.06 2.787-5.7 6.95-11.967 13.494-17.114 20.827-6.164 8.78-3.987 14.205 5.708 16.85.178.05.33.194.492.293-.118.108-.22.242-.354.317-5.72 3.216-12.822-.588-12.798-8.383z" clip-rule="evenodd"/>
    <path fill="#FDD400" fill-rule="evenodd" d="M54.756 43.324c-8.32-.523-8.913-5.594-6.628-11.37 1.877-4.746 4.898-9.042 7.447-13.518.144-.252.606-.32.92-.476-.076.58-.035 1.206-.244 1.733-1.935 4.87-4.244 9.62-5.773 14.61-1.13 3.688-.146 7.046 4.45 7.944.905.176 1.813.334 2.72.5-1.052.212-2.102.422-2.89.577z" clip-rule="evenodd"/>
    <path fill="#CF0600" fill-rule="evenodd" d="M67.204 36.903c-.044 4.003-1.538 6.22-3.676 7.99-3.235 2.676-4.185 6.006-3.302 10.003.106.478.026.994.032 1.493-.373-.42-.822-.793-1.107-1.265-2.623-4.34-1.946-8.06 2.148-11.112 3.84-2.863 4.156-6.575 2.582-10.742-.333-.877-.65-1.76-.975-2.64.7.75 1.533 1.415 2.073 2.268.98 1.544 1.786 3.2 2.226 4.005z" clip-rule="evenodd"/>
    <g>
      <g fill-rule="evenodd" clip-rule="evenodd">
        <path d="M51.464 69.433c-.64.614-.674 1.255-.86 1.837-2.677 8.303-3.484 17.026-5.687 25.426-1.23 4.693-3.995 8.618-7.618 11.87-.957.857-2.226 1.123-3.474 1.293-.67.092-1.485.256-1.758-.63-.264-.86.435-1.235 1.065-1.53.623-.29 1.267-.57 1.933-.728 2.426-.575 3.665-2.252 4.335-4.503 1.52-5.096 3.232-10.145 4.514-15.3 1.217-4.895 2.92-9.677 3.432-14.756.265-2.636 1.96-4.966 1.78-7.775-.193-2.995-.903-5.674-3.224-7.763-1.683-1.516-3.187-3.182-4.507-5.05-1.226-1.74-3.452-2.41-4.782-4.19-1.142-1.527-2.25-3.05-2.874-4.83-1.37-3.896-2.695-7.805-4.268-11.627-.422-1.027-.607-2.2.43-2.92 1.173-.812 2.422-.397 3.508.375 1.037.735 1.19 1.725.615 2.823-.65 1.242-.818 2.51-.2 3.795 1.66 3.447 2.98 7.047 5.048 10.312 2.348 3.71 6.077 5.53 9.667 7.584.4.228.78.334.958-.356.392-1.527-.427-3.72-1.85-4.532-2.562-1.465-3.876-3.602-3.855-6.59.008-1.245-.316-2.5-.267-3.74.16-4 3.058-5.852 6.158-7.385 2.79-1.382 5.36-.575 7.726 1.23 2.49 1.9 4.965 3.776 4.492 7.47-.337 2.636-1.052 5.143-3.394 6.652-2.86 1.843-2.856 4.818-3.353 7.607-.195 1.097.584 1.278 1.438.973 1.493-.535 2.876-1.3 3.988-2.443 4.382-4.5 8.96-8.862 11.734-14.634 1.538-3.2 2.415-6.585 1.98-10.187-.084-.69-.108-1.357-.058-2.056.11-1.555.802-2.527 2.424-2.346 1.752.195 3.243 2.18 2.42 3.52-2.445 3.988-2.847 8.696-4.805 12.805-2.474 5.19-5.978 9.657-10.263 13.55-4.594 4.17-7.16 9.6-9.27 15.35-1.01 2.753-1.417 5.542-1.863 8.377-.573 3.634.792 6.812 2.29 9.917.8 1.658 1.29 3.393 1.8 5.123 1.403 4.76 3.19 9.358 5.425 13.79.45.89 1.077 1.52 1.974 1.914.343.152.7.3.998.523.937.702 1.948 1.624 1.16 2.79-.793 1.175-1.824.142-2.604-.367-1.163-.758-2.296-1.674-2.84-2.965-2.026-4.82-5.074-9.088-7.266-13.836-2.94-6.367-3.417-12.878-2.308-19.64.266-1.622.315-2.474-.046-4.23zm-2.42-28.402c.04 2.538.805 3.877 3.163 4.54 1.862.524 3.205-.772 4.23-2.148.945-1.273 2.186-2.53 1.814-4.34-.324-1.574-4.265-4.273-5.888-4.147-1.387.107-3.083 2.44-3.315 4.6-.053.492-.008.996-.003 1.496z"/>
        <path d="M52.846 69.95c-.64.615-.674 1.256-.86 1.838-2.677 8.303-3.484 17.026-5.687 25.426-1.23 4.693-3.996 8.618-7.62 11.87-.955.857-2.224 1.123-3.472 1.293-.67.093-1.485.257-1.758-.63-.264-.86.435-1.234 1.065-1.528.623-.29 1.267-.572 1.933-.73 2.426-.575 3.665-2.252 4.335-4.503 1.52-5.095 3.23-10.144 4.513-15.298 1.217-4.897 2.92-9.68 3.432-14.758.265-2.636 1.96-4.966 1.78-7.775-.193-2.994-.903-5.674-3.224-7.763-1.683-1.516-3.187-3.182-4.507-5.05-1.226-1.74-3.452-2.41-4.782-4.19-1.142-1.527-2.25-3.05-2.874-4.83-1.367-3.896-2.693-7.805-4.266-11.627-.422-1.027-.607-2.2.43-2.92 1.173-.812 2.422-.397 3.508.375 1.037.735 1.19 1.725.615 2.823-.65 1.242-.818 2.51-.2 3.795 1.66 3.447 2.98 7.047 5.048 10.312 2.348 3.71 6.077 5.53 9.667 7.584.4.23.78.335.958-.355.392-1.526-.427-3.72-1.85-4.53-2.562-1.466-3.876-3.603-3.855-6.59.008-1.246-.316-2.5-.267-3.74.16-4 3.058-5.853 6.158-7.386 2.79-1.382 5.36-.575 7.726 1.23 2.49 1.9 4.965 3.776 4.492 7.47-.337 2.636-1.052 5.143-3.394 6.652-2.86 1.844-2.856 4.82-3.353 7.608-.195 1.097.584 1.278 1.438.973 1.493-.535 2.876-1.3 3.988-2.443 4.38-4.5 8.96-8.862 11.733-14.634 1.538-3.2 2.415-6.585 1.98-10.187-.084-.69-.108-1.357-.058-2.056.11-1.555.802-2.527 2.424-2.346 1.752.196 3.243 2.18 2.42 3.522-2.445 3.987-2.847 8.695-4.805 12.804-2.474 5.19-5.978 9.658-10.263 13.55-4.594 4.17-7.16 9.603-9.27 15.353-1.01 2.75-1.417 5.54-1.863 8.375-.57 3.634.794 6.812 2.292 9.917.8 1.658 1.29 3.393 1.8 5.123 1.403 4.76 3.19 9.358 5.425 13.79.45.89 1.077 1.52 1.974 1.914.345.15.703.3 1 .52.937.703 1.948 1.625 1.16 2.79-.793 1.176-1.824.143-2.604-.366-1.163-.758-2.296-1.674-2.84-2.965-2.026-4.822-5.074-9.09-7.266-13.838-2.94-6.367-3.417-12.878-2.308-19.64.266-1.62.315-2.473-.046-4.23zm-2.42-28.4c.04 2.536.805 3.875 3.163 4.538 1.86.524 3.204-.772 4.228-2.148.946-1.273 2.187-2.53 1.815-4.34-.325-1.574-4.266-4.273-5.89-4.147-1.386.107-3.082 2.44-3.314 4.6-.055.492-.01.996-.004 1.496z"/>
        <path d="M51.81 69.778c-.64.614-.674 1.255-.86 1.837-2.677 8.303-3.484 17.026-5.687 25.426-1.23 4.694-3.995 8.62-7.618 11.87-.956.858-2.225 1.124-3.473 1.294-.67.093-1.485.257-1.758-.63-.264-.86.435-1.234 1.065-1.528.622-.29 1.266-.57 1.932-.73 2.426-.574 3.665-2.25 4.335-4.502 1.52-5.095 3.23-10.144 4.513-15.298 1.217-4.896 2.92-9.678 3.432-14.757.265-2.637 1.96-4.967 1.78-7.776-.193-2.994-.903-5.674-3.224-7.763-1.683-1.515-3.187-3.18-4.507-5.05-1.225-1.738-3.45-2.41-4.78-4.19-1.143-1.526-2.25-3.048-2.875-4.83-1.368-3.895-2.694-7.804-4.267-11.626-.422-1.027-.607-2.2.43-2.92 1.173-.812 2.422-.397 3.508.375 1.037.734 1.19 1.724.615 2.822-.65 1.242-.817 2.51-.198 3.795 1.66 3.447 2.98 7.047 5.047 10.312 2.347 3.708 6.076 5.53 9.666 7.583.4.23.78.335.958-.355.392-1.527-.427-3.72-1.85-4.532-2.562-1.465-3.876-3.602-3.855-6.59.007-1.245-.317-2.5-.268-3.74.16-4 3.058-5.852 6.158-7.385 2.79-1.38 5.36-.574 7.726 1.232 2.49 1.9 4.965 3.775 4.492 7.468-.337 2.637-1.052 5.144-3.394 6.653-2.86 1.844-2.856 4.82-3.353 7.608-.194 1.098.585 1.28 1.44.974 1.492-.535 2.875-1.3 3.987-2.443 4.38-4.5 8.96-8.86 11.733-14.633 1.538-3.2 2.415-6.585 1.98-10.187-.084-.69-.108-1.357-.058-2.056.11-1.555.802-2.527 2.424-2.346 1.752.195 3.243 2.18 2.42 3.52-2.445 3.988-2.847 8.696-4.805 12.805-2.473 5.19-5.977 9.658-10.262 13.55-4.594 4.17-7.16 9.603-9.27 15.353-1.01 2.752-1.417 5.54-1.863 8.376-.572 3.634.793 6.812 2.29 9.917.802 1.657 1.29 3.392 1.8 5.122 1.404 4.76 3.19 9.358 5.426 13.79.45.89 1.078 1.52 1.975 1.914.344.15.702.3 1 .522.936.702 1.947 1.624 1.16 2.79-.794 1.175-1.825.142-2.605-.367-1.163-.757-2.296-1.673-2.84-2.964-2.026-4.82-5.074-9.09-7.266-13.837-2.94-6.368-3.417-12.88-2.308-19.642.266-1.62.314-2.472-.046-4.23zm-2.42-28.402c.04 2.537.804 3.876 3.162 4.54 1.862.523 3.205-.773 4.23-2.15.945-1.272 2.186-2.53 1.814-4.338-.325-1.575-4.266-4.274-5.89-4.148-1.386.107-3.082 2.44-3.314 4.6-.053.492-.008.996-.003 1.496z"/>
        <path d="M53.19 70.297c-.638.614-.673 1.255-.86 1.837-2.676 8.303-3.483 17.026-5.686 25.426-1.23 4.693-3.995 8.618-7.618 11.87-.956.857-2.225 1.123-3.473 1.293-.67.093-1.485.257-1.758-.63-.264-.86.435-1.234 1.065-1.528.623-.29 1.267-.57 1.933-.73 2.426-.574 3.665-2.25 4.335-4.502 1.52-5.095 3.23-10.144 4.513-15.298 1.218-4.896 2.922-9.678 3.433-14.757.265-2.636 1.96-4.966 1.78-7.775-.193-2.994-.903-5.674-3.224-7.763-1.684-1.516-3.188-3.182-4.508-5.05-1.226-1.74-3.452-2.41-4.782-4.19-1.142-1.527-2.25-3.05-2.874-4.83-1.368-3.896-2.694-7.805-4.267-11.627-.423-1.027-.608-2.2.43-2.92 1.172-.812 2.42-.397 3.507.375 1.037.735 1.19 1.725.615 2.823-.65 1.243-.818 2.512-.2 3.796 1.66 3.447 2.98 7.047 5.048 10.312 2.348 3.71 6.077 5.53 9.667 7.584.4.23.78.335.958-.355.392-1.527-.427-3.72-1.85-4.532-2.562-1.465-3.876-3.602-3.855-6.59.008-1.245-.316-2.5-.267-3.74.16-4 3.058-5.852 6.158-7.385 2.792-1.382 5.36-.575 7.727 1.23 2.49 1.9 4.965 3.776 4.492 7.47-.338 2.636-1.053 5.143-3.395 6.652-2.86 1.844-2.856 4.82-3.353 7.608-.195 1.097.584 1.278 1.438.973 1.493-.535 2.876-1.3 3.988-2.443 4.38-4.5 8.96-8.862 11.733-14.634 1.54-3.2 2.416-6.585 1.98-10.187-.083-.692-.107-1.358-.057-2.057.11-1.555.802-2.527 2.424-2.346 1.752.195 3.243 2.18 2.42 3.52-2.445 3.988-2.847 8.696-4.805 12.805-2.474 5.19-5.978 9.658-10.263 13.55-4.595 4.17-7.16 9.603-9.27 15.353-1.012 2.752-1.418 5.54-1.864 8.376-.572 3.635.793 6.813 2.29 9.918.802 1.658 1.29 3.393 1.8 5.123 1.404 4.762 3.19 9.36 5.426 13.792.45.89 1.077 1.518 1.974 1.913.344.15.702.3 1 .522.936.702 1.947 1.624 1.16 2.79-.794 1.175-1.825.142-2.605-.367-1.162-.758-2.295-1.674-2.838-2.965-2.027-4.82-5.075-9.09-7.267-13.837-2.94-6.367-3.417-12.878-2.308-19.64.266-1.622.315-2.473-.046-4.23zm-2.42-28.403c.04 2.537.806 3.876 3.164 4.54 1.862.523 3.205-.773 4.23-2.15.945-1.272 2.186-2.53 1.814-4.338-.325-1.575-4.266-4.274-5.89-4.148-1.386.107-3.082 2.44-3.314 4.6-.053.492-.008.996-.003 1.496z"/>
      </g>
      <g fill-rule="evenodd" clip-rule="evenodd">
        <path d="M51.637 69.087c-.64.614-.674 1.255-.86 1.837C48.1 79.227 47.29 87.95 45.09 96.35c-1.23 4.693-3.995 8.618-7.618 11.87-.956.857-2.225 1.123-3.473 1.293-.67.093-1.486.257-1.76-.63-.263-.86.436-1.234 1.066-1.528.623-.29 1.267-.57 1.933-.73 2.425-.574 3.664-2.25 4.334-4.502 1.52-5.095 3.23-10.144 4.513-15.298 1.217-4.896 2.92-9.678 3.432-14.757.264-2.636 1.96-4.966 1.778-7.775-.192-2.994-.902-5.673-3.223-7.762-1.683-1.515-3.187-3.18-4.507-5.05-1.226-1.738-3.452-2.41-4.782-4.19-1.142-1.526-2.25-3.048-2.874-4.83-1.368-3.895-2.694-7.804-4.267-11.626-.422-1.027-.607-2.2.43-2.92 1.173-.812 2.422-.397 3.508.375 1.037.734 1.19 1.724.615 2.822-.65 1.242-.818 2.51-.2 3.795 1.66 3.447 2.98 7.047 5.048 10.312 2.348 3.708 6.077 5.53 9.667 7.583.4.23.78.335.958-.355.393-1.527-.426-3.72-1.85-4.532-2.56-1.465-3.875-3.602-3.854-6.59.008-1.245-.316-2.5-.267-3.74.158-4 3.057-5.852 6.157-7.385 2.79-1.38 5.36-.574 7.726 1.232 2.49 1.9 4.965 3.775 4.492 7.468-.337 2.637-1.052 5.144-3.394 6.653-2.86 1.844-2.855 4.82-3.352 7.608-.195 1.098.584 1.28 1.438.974 1.493-.535 2.876-1.3 3.988-2.443 4.38-4.5 8.96-8.86 11.733-14.633 1.538-3.2 2.415-6.585 1.98-10.187-.084-.69-.108-1.357-.058-2.056.11-1.555.8-2.527 2.423-2.346 1.752.195 3.243 2.18 2.42 3.52-2.445 3.988-2.847 8.696-4.805 12.805-2.474 5.19-5.978 9.658-10.263 13.55-4.594 4.17-7.16 9.602-9.27 15.352-1.01 2.752-1.417 5.54-1.863 8.376-.572 3.635.793 6.813 2.29 9.918.802 1.658 1.29 3.393 1.8 5.123 1.404 4.762 3.19 9.36 5.426 13.792.45.89 1.077 1.518 1.974 1.913.344.15.702.3 1 .522.936.702 1.947 1.624 1.16 2.79-.794 1.175-1.825.142-2.605-.367-1.163-.758-2.296-1.674-2.84-2.965-2.026-4.82-5.074-9.09-7.266-13.837-2.938-6.367-3.416-12.878-2.307-19.64.266-1.622.315-2.473-.046-4.23zm-2.42-28.4c.04 2.536.805 3.875 3.163 4.538 1.862.524 3.205-.772 4.23-2.148.945-1.273 2.186-2.53 1.814-4.34-.325-1.574-4.266-4.273-5.89-4.147-1.386.107-3.082 2.44-3.314 4.6-.053.492-.008.996-.003 1.496z"/>
        <path d="M53.02 69.605c-.64.614-.675 1.255-.862 1.837-2.676 8.303-3.483 17.026-5.686 25.426-1.23 4.693-3.995 8.618-7.618 11.87-.956.857-2.225 1.123-3.473 1.293-.668.094-1.484.258-1.757-.628-.264-.86.435-1.235 1.065-1.53.623-.29 1.267-.57 1.933-.728 2.427-.575 3.666-2.252 4.336-4.503 1.52-5.094 3.23-10.143 4.513-15.297 1.216-4.896 2.92-9.678 3.43-14.757.266-2.636 1.962-4.966 1.78-7.775-.192-2.993-.902-5.672-3.223-7.76-1.683-1.517-3.187-3.183-4.507-5.052-1.226-1.738-3.452-2.41-4.782-4.19-1.142-1.526-2.25-3.048-2.874-4.83-1.368-3.895-2.694-7.804-4.267-11.626-.422-1.027-.607-2.2.43-2.92 1.173-.812 2.422-.397 3.508.375 1.037.735 1.19 1.725.615 2.823-.65 1.242-.818 2.51-.2 3.795 1.66 3.447 2.98 7.047 5.048 10.312 2.348 3.71 6.077 5.53 9.667 7.584.4.23.78.336.958-.354.392-1.527-.427-3.72-1.85-4.532-2.562-1.465-3.876-3.602-3.855-6.59.008-1.245-.316-2.5-.267-3.74.16-4 3.06-5.852 6.16-7.385 2.79-1.383 5.358-.576 7.725 1.23 2.49 1.9 4.965 3.775 4.492 7.468-.337 2.637-1.052 5.144-3.394 6.653-2.86 1.845-2.856 4.82-3.353 7.61-.195 1.096.584 1.277 1.438.972 1.493-.535 2.876-1.3 3.988-2.443 4.38-4.5 8.96-8.863 11.733-14.635 1.537-3.2 2.414-6.585 1.978-10.187-.083-.69-.107-1.357-.057-2.056.112-1.555.803-2.527 2.425-2.346 1.752.195 3.243 2.18 2.42 3.52-2.445 3.988-2.847 8.696-4.805 12.805-2.474 5.192-5.978 9.66-10.263 13.55-4.594 4.172-7.16 9.603-9.27 15.353-1.01 2.752-1.417 5.54-1.863 8.376-.572 3.633.793 6.81 2.29 9.916.802 1.658 1.29 3.393 1.8 5.123 1.404 4.76 3.19 9.357 5.426 13.79.45.89 1.077 1.518 1.974 1.913.344.15.702.3 1 .522.936.702 1.947 1.624 1.16 2.79-.794 1.175-1.825.142-2.605-.367-1.164-.758-2.297-1.674-2.84-2.965-2.027-4.82-5.075-9.09-7.267-13.837-2.94-6.367-3.417-12.878-2.308-19.64.266-1.62.314-2.473-.046-4.23zm-2.42-28.4c.04 2.536.804 3.875 3.162 4.538 1.862.524 3.205-.772 4.23-2.148.945-1.273 2.186-2.53 1.814-4.34-.325-1.574-4.266-4.273-5.89-4.147-1.386.107-3.082 2.44-3.314 4.6-.054.492-.008.996-.003 1.496z"/>
      </g>
      <path fill="#FFDC00" fill-rule="evenodd" d="M51.982 69.433c-.64.614-.674 1.255-.86 1.837-2.677 8.303-3.484 17.026-5.687 25.426-1.23 4.693-3.995 8.618-7.618 11.87-.956.857-2.225 1.123-3.473 1.293-.67.092-1.485.256-1.758-.63-.264-.86.435-1.235 1.065-1.53.624-.29 1.268-.57 1.934-.728 2.426-.575 3.665-2.252 4.335-4.503 1.518-5.096 3.23-10.145 4.512-15.3 1.217-4.895 2.92-9.677 3.432-14.756.265-2.636 1.96-4.966 1.78-7.775-.193-2.995-.903-5.674-3.224-7.763-1.683-1.516-3.187-3.182-4.507-5.05-1.226-1.74-3.452-2.41-4.782-4.19-1.14-1.527-2.248-3.05-2.873-4.83-1.368-3.896-2.694-7.805-4.267-11.627-.422-1.027-.607-2.2.43-2.92 1.173-.812 2.422-.397 3.508.375 1.037.735 1.19 1.725.615 2.823-.65 1.242-.818 2.51-.2 3.795 1.66 3.447 2.98 7.047 5.048 10.312 2.35 3.71 6.078 5.53 9.668 7.584.4.228.78.334.958-.356.392-1.527-.427-3.72-1.85-4.532-2.562-1.465-3.876-3.602-3.855-6.59.01-1.245-.315-2.5-.266-3.74.16-4 3.058-5.852 6.158-7.385 2.79-1.382 5.36-.575 7.726 1.23 2.49 1.9 4.965 3.776 4.492 7.47-.337 2.636-1.052 5.143-3.394 6.652-2.86 1.843-2.856 4.818-3.353 7.607-.195 1.097.584 1.278 1.438.973 1.494-.535 2.877-1.3 3.99-2.443 4.38-4.5 8.958-8.862 11.732-14.634 1.538-3.2 2.415-6.585 1.98-10.187-.084-.69-.108-1.357-.058-2.056.11-1.555.802-2.527 2.424-2.346 1.752.195 3.243 2.18 2.42 3.52-2.445 3.988-2.847 8.696-4.805 12.805-2.474 5.19-5.978 9.657-10.263 13.55-4.594 4.17-7.16 9.6-9.27 15.35-1.01 2.753-1.417 5.542-1.863 8.377-.572 3.634.793 6.812 2.29 9.917.802 1.658 1.29 3.393 1.8 5.123 1.404 4.76 3.19 9.358 5.426 13.79.45.89 1.077 1.52 1.974 1.914.344.152.702.3 1 .523.936.702 1.947 1.624 1.16 2.79-.794 1.175-1.825.142-2.605-.367-1.163-.758-2.296-1.674-2.84-2.965-2.026-4.82-5.074-9.088-7.266-13.836-2.94-6.367-3.417-12.878-2.308-19.64.266-1.622.315-2.474-.046-4.23zm-2.42-28.402c.04 2.538.805 3.877 3.163 4.54 1.862.524 3.205-.772 4.23-2.148.945-1.273 2.186-2.53 1.814-4.34-.326-1.574-4.267-4.273-5.89-4.147-1.387.107-3.083 2.44-3.315 4.6-.053.492-.008.996-.003 1.496z" clip-rule="evenodd"/>
      <path fill-rule="evenodd" d="M53.364 69.95c-.64.615-.674 1.256-.86 1.838-2.677 8.303-3.484 17.026-5.687 25.426-1.23 4.693-3.995 8.618-7.618 11.87-.957.857-2.226 1.123-3.474 1.293-.67.093-1.485.257-1.758-.63-.264-.86.435-1.234 1.065-1.528.623-.29 1.267-.572 1.933-.73 2.426-.575 3.665-2.252 4.335-4.503 1.52-5.095 3.232-10.144 4.514-15.298 1.217-4.897 2.92-9.68 3.432-14.758.265-2.636 1.96-4.966 1.78-7.775-.193-2.994-.903-5.674-3.224-7.763-1.683-1.516-3.187-3.182-4.507-5.05-1.226-1.74-3.452-2.41-4.782-4.19-1.142-1.527-2.25-3.05-2.874-4.83-1.37-3.896-2.695-7.805-4.268-11.627-.422-1.027-.607-2.2.43-2.92 1.173-.812 2.422-.397 3.508.375 1.037.735 1.19 1.725.615 2.823-.65 1.242-.818 2.51-.2 3.795 1.66 3.447 2.98 7.047 5.048 10.312 2.348 3.71 6.077 5.53 9.667 7.584.4.23.78.335.958-.355.392-1.526-.427-3.72-1.85-4.53-2.562-1.466-3.876-3.603-3.855-6.59.008-1.246-.316-2.5-.267-3.74.16-4 3.058-5.853 6.158-7.386 2.79-1.382 5.36-.575 7.726 1.23 2.49 1.9 4.965 3.776 4.492 7.47-.337 2.636-1.052 5.143-3.394 6.652-2.86 1.844-2.856 4.82-3.353 7.608-.195 1.097.584 1.278 1.438.973 1.493-.535 2.876-1.3 3.988-2.443 4.382-4.5 8.96-8.862 11.734-14.634 1.538-3.2 2.415-6.585 1.98-10.187-.084-.69-.108-1.357-.058-2.056.11-1.555.802-2.527 2.424-2.346 1.752.196 3.243 2.18 2.42 3.522-2.445 3.987-2.847 8.695-4.805 12.804-2.474 5.19-5.978 9.658-10.263 13.55-4.594 4.17-7.16 9.603-9.27 15.353-1.01 2.75-1.417 5.54-1.863 8.375-.573 3.634.792 6.812 2.29 9.917.8 1.658 1.29 3.393 1.8 5.123 1.403 4.76 3.19 9.358 5.425 13.79.45.89 1.077 1.52 1.974 1.914.343.15.7.3.998.52.937.703 1.948 1.625 1.16 2.79-.793 1.176-1.824.143-2.604-.366-1.163-.758-2.296-1.674-2.84-2.965-2.026-4.822-5.074-9.09-7.266-13.838-2.94-6.367-3.417-12.878-2.308-19.64.266-1.62.315-2.473-.046-4.23zm-2.42-28.4c.04 2.536.805 3.875 3.163 4.538 1.862.524 3.205-.772 4.23-2.148.945-1.273 2.186-2.53 1.814-4.34-.324-1.574-4.265-4.273-5.888-4.147-1.387.107-3.083 2.44-3.315 4.6-.053.492-.008.996-.003 1.496z" clip-rule="evenodd"/>
    </g>
  </g>
</svg>