<svg xmlns="http://www.w3.org/2000/svg" viewBox="0 0 460.8 84.96">
  <g clip-rule="evenodd">
    <path fill="#FDD400" fill-rule="evenodd" d="M102.24 30.6c2.242 1.32 2.558 2.165 1.716 4.896-1.85 6-3.722 11.994-5.724 18.44.613-.584.94-.854 1.218-1.167 4.13-4.675 8.266-9.344 12.373-14.04 1.415-1.618 2.973-2.91 5.18-3.318 4.036-.747 6.157 1.6 4.925 5.514-1.456 4.625-2.897 9.255-4.34 13.885-.105.335-.177.68-.337 1.303.424-.243.664-.328.836-.486 4.332-3.97 8.612-7.998 13.018-11.883 1.018-.897 2.406-1.662 3.723-1.876 3.726-.604 6.007 2.05 5.034 5.698-.445 1.672-1.12 3.285-1.727 4.91-1.614 4.32-3.25 8.63-4.87 12.946-.205.55-.36 1.12-.577 1.805h12.08c-.18-9.57 5.132-14.97 14.737-15.02 5.455-.03 10.91-.006 16.577-.006l-4.834 15.117c3.928 0 7.64.038 11.348-.054.416-.01 1.027-.69 1.186-1.178 1.338-4.098 2.63-8.212 3.846-12.347.34-1.155.82-1.627 2.103-1.575 2.87.116 5.75.036 8.916.036l-2.83 9.072.254.2c2.688-2.318 5.25-4.808 8.108-6.896 1.93-1.413 4.167-2.68 6.458-3.27 3.883-1.005 5.59 1.06 4.443 4.928-.853 2.87-1.797 5.712-2.695 8.567-.247.787-.476 1.578-.766 2.54h11.847c-.586 2.587-2.8 4.446-6.015 4.573-4.61.182-9.237.147-13.85.01-2.49-.073-3.354-1.48-2.747-3.913.275-1.102.666-2.174.994-3.263.32-1.07.628-2.146.668-3.394-2.477 2.146-5.06 4.184-7.405 6.467-3.625 3.53-7.806 4.998-12.92 3.964l.337-2.114c-2.662 2.61-5.788 2.365-8.868 2.345-3.06-.02-6.12.023-9.177-.036-2.35-.048-3.23-.615-4.28-2.625-2.174 1.992-4.597 3.383-7.638 3.377-3.15-.005-5.543-1.283-7.222-4.153-1.887 2.827-4.663 3.423-7.688 3.423-3.54 0-7.078.02-10.617-.012-.83-.007-1.68-.098-2.485-.3-2.006-.502-2.78-1.59-2.175-3.57.888-2.915 2.04-5.75 3.084-8.616.566-1.553 1.146-3.102 1.737-4.697-.258-.022-.335-.053-.36-.028-5 4.902-10 9.805-14.986 14.723-.51.502-.878 1.147-1.398 1.635-1.514 1.416-3.827 1.635-5.487.578-1.31-.833-1.695-2.4-1.036-4.538 1.64-5.32 3.31-10.634 4.966-15.95.264-.847.51-1.7.54-2.7-1.318 1.57-2.65 3.13-3.953 4.716-4.605 5.605-9.15 11.26-13.847 16.79-.78.92-2.14 1.668-3.33 1.85-1.98.303-4.043.083-6.248.083 3.503-11.265 6.964-22.396 10.49-33.73H77.683l4.04-7.634C88.56 30.6 95.4 30.6 102.24 30.6zm61.818 26.294c-1.903 0-3.57-.042-5.234.034-.358.017-.9.396-1.01.725-.698 2.097-1.43 4.2-1.858 6.357-.148.748.31 2.106.892 2.403 1.102.563 2.49.574 3.768.767.093.014.293-.34.36-.55 1.014-3.177 2.016-6.358 3.082-9.736zM374.4 30.6c-.977 1.484-1.952 2.968-2.93 4.452 2.09-1.198 4.156-2.086 6.57-1.935 2.405.152 4.404 1.097 5.932 2.957 1.885 2.294 1.91 5.642.11 8.004-2.215 2.902-6.39 3.918-9.914 2.41-3.526-1.507-4.893-4.31-4.23-8.592-.642.09-1.295.256-1.95.263-2.878.028-5.758-.02-8.636.042-.493.01-1.305.308-1.418.653-1.434 4.366-2.766 8.767-4.182 13.345h10.083c-.27 2.505-1.273 3.91-3.492 4.288-1.99.34-4.05.285-6.08.386-.652.032-1.307.005-2.012.005-.683 2.092-1.313 4.08-1.982 6.058-2.098 6.2-5.972 9.033-12.48 9.066-6.177.03-12.354.01-18.533.005-.466 0-.932-.047-1.9-.1 1.19-2.03 2.103-3.903 3.31-5.56 1.078-1.48 2.747-1.745 4.547-1.43 4.3.752 8.613 1.44 13.15 2.19 3.04-9.645 6.052-19.202 9.106-28.897-5.895 0-11.592-.184-17.27.058-4.56.195-8.202 3.625-8.543 7.572-.09 1.056.22 2.145.346 3.22.168 0 .335.003.502.006.243-.52.48-1.043.732-1.558 1.482-3.013 5.072-4.78 8.613-4.246 3.363.508 5.933 2.976 6.404 6.15.625 4.192-2.53 7.817-7.413 8.082-2.29.125-4.72-.106-6.908-.766-6.986-2.105-9.71-8.917-6.52-16.16 2.598-5.9 7.71-8.402 13.683-9.59.52-.102 1.03-.252 1.547-.38h41.76zM258.12 30.6c1.28.277 2.568.515 3.836.836 8.954 2.268 12.742 8.032 11.67 17.723-1.584 14.298-18.03 25.97-31.973 22.69-8.7-2.044-13.286-9.822-10.71-19 .963-3.436 3.07-6.558 4.716-9.79.207-.41.784-.884 1.197-.892 3.99-.066 7.98-.04 12.36-.04-3.028 2.99-5.09 6.163-6.378 9.813-1.094 3.102-1.624 6.254-.913 9.533 1.135 5.243 5.494 7.3 10.235 4.788.683-.36 1.378-.77 1.933-1.297 4.748-4.514 7.663-9.98 7.942-16.583.268-6.358-3.498-10.162-9.87-10.196-8.993-.048-17.988-.013-26.982-.014h-2.096l4.07-7.572c10.32.002 20.64.002 30.96.002z"/>
    <path fill="#FDD400" fill-rule="evenodd" d="M414.578 52.14c-1.622 5.196-3.148 10.087-4.71 15.085h11.79c-1.245-3.284-1.19-6.466.858-9.176 1.185-1.57 2.833-3.057 4.6-3.87 6.325-2.91 12.94-2.697 19.477-.788 2.994.875 4.138 2.945 3.806 5.534-.305 2.37-2.232 4.083-4.605 4.085-2.576.003-5.152 0-8.044 0 1.048-2.064 2-3.942 3.1-6.112-1.997 0-3.707-.044-5.41.037-.338.017-.82.45-.95.8-.77 2.075-1.52 4.163-2.155 6.284-.514 1.716.044 2.643 1.78 3.053.86.204 1.778.234 2.67.237 6.6.02 13.197.01 19.795.01h1.972c-.367 2.357-2.367 4.452-5.38 4.49-8.08.104-16.176-.008-24.243-.45-2.28-.125-4.48-1.685-6.913-2.665-1.52 2.754-4.506 3.434-7.925 3.326-3.176-.1-6.357-.002-9.536-.025-3.898-.028-5.32-1.96-4.193-5.724.892-2.98 1.85-5.943 2.768-8.918.03-.098-.038-.228-.06-.342-.06-.02-.114-.052-.172-.057-5.32-.407-5.32-.406-7.25 4.522-.198.5-.463.984-.592 1.503-.767 3.083-2.462 4.847-5.893 4.396-.355-.047-.965.403-1.155.776-1.317 2.585-3.535 3.74-6.275 3.812-4.196.11-8.398.09-12.596.007-2.975-.06-4.4-1.954-3.56-4.844 1.376-4.712 2.916-9.376 4.445-14.04.122-.372.695-.84 1.068-.847 3.217-.067 6.437-.04 9.837-.04l-4.777 15.11c3.682 0 7.19.03 10.697-.047.34-.007.814-.604.977-1.023 1.158-3.017 2.253-6.06 3.41-9.21-1.984-.833-3.538-2.073-3.88-4.324-.443-2.93.91-5.21 3.844-6.607 3.234-1.54 6.657-1.01 10.21-1.1l-2.4 7.14h15.57zM291.54 52.2l-2.844 9.052c.086.07.172.144.26.215 2.68-2.312 5.25-4.77 8.08-6.88 1.83-1.363 4.04-2.216 6.088-3.28.203-.105.466-.107.703-.137 3.718-.454 5.24 1.26 4.197 4.876-.896 3.106-1.943 6.168-2.92 9.25-.197.617-.38 1.238-.62 2.028h11.854c-.538 2.57-2.767 4.457-5.99 4.587-4.61.188-9.237.15-13.853.016-2.495-.072-3.365-1.473-2.762-3.9.274-1.104.664-2.176.992-3.265.323-1.072.634-2.148.672-3.403L290.15 65.9c-1 .863-2.045 1.677-2.986 2.6-3.378 3.308-7.456 4.082-12.083 3.33.047-.316.056-.71.167-1.072 1.77-5.72 3.575-11.43 5.31-17.162.307-1.008.71-1.456 1.845-1.424 2.98.085 5.966.028 9.14.028z"/>
    <path fill="none" d="M164.058 56.894c-1.066 3.378-2.068 6.56-3.083 9.735-.067.21-.267.563-.36.55-1.277-.192-2.666-.203-3.768-.767-.582-.297-1.04-1.655-.892-2.403.428-2.158 1.16-4.26 1.858-6.357.11-.328.652-.708 1.01-.725 1.664-.076 3.332-.034 5.235-.034z"/>
  </g>
  <path fill="none" d="M46.465 28.257l-.188-.225c-.222-.165-.484-.51-.66-.47-4.203.93-3.977-1.982-4.056-4.634.27-1.234.32-2.572.842-3.686 2.392-5.094 3.82-10.28 2.15-15.902-.092-.306-.272-.585-.41-.877-.043.11-.124.218-.12.325.22 7.757-4.623 13.262-8.53 19.182-2.57 1.875-2.543 5.875-1.787 7.067 3.833 6.042 11.583 9.728 10.656 18.568-2.318 4.895-4.478 9.8-.803 15.014.148.513.23 1.058.455 1.534 1.836 3.88 5.386 7.922-1.13 10.922-.36.166-.8.157-1.202.23.29-.235.604-.444.866-.708.696-.7 1.37-1.424 2.053-2.14-.752.305-1.482.777-2.26.875-2.054.256-4.142.56-6.194.447-1.983-.108-1.964-.326-2.067 1.154-.004.054-.56.18-.61.105-.938-1.39-4.945-.373-2.897-4.4.733-1.44.033-4.273.605-6.436l3.57-5.06c1.513-2.474 2.477-5.772.27-7.464-3.597-2.756-4.218-6.373-5.026-10.18l.12-1.27c-.343.2-.737.34-1.02.604-2.105 1.947-3.476 4.28-3.678 7.202-.733 1.37-.096 2.47.557 3.683 1.298 2.404 3.596 4.763-1.194 6.552-2.193.82-4.604-1.425-6.45 1.047-.35.466-.925-1.23-.992-2.99-.26-6.875 4.365-11.05 8.696-14.92 5.213-4.66 6.462-9.918 5.033-16.313-.47-2.766-.93-5.532-1.428-8.293-.04-.223-.334-.4-.51-.6-.058.272-.208.562-.16.814 1.198 6.314-.86 11.812-4.097 17.086-3.697 6.023-9.983 9.476-14.407 14.77-7.77 9.3-6.622 19.086 3.128 26.23 12.922 9.47 36.866 10.114 50.266 1.354 12.27-8.02 13.29-20.015 2.512-29.968-3.66-3.38-6.09-7.367-6.534-12.42-.067-.76-.146-1.52-.22-2.28-.38.752-.764 1.503-1.145 2.254-3.824 3.457-1.796 13.112 2.908 16.988 2.615 2.156 4.67 5.356 3.938 9.3-.062.338-.553.598-.844.893 0-.37.06-.748-.008-1.104-.225-1.194-.494-2.383-.746-3.573-.205.752-.34 1.53-.625 2.252-1.582 4.005-6.26 4.255-8.556 3.866-3.32-.564-6.205-4.01-5.833-8.457.84-3.757 3.596-7.183 1.95-11.362-1.124-4.884 1.557-9.062 2.516-13.56-.218-1.474-.126-3.086-.71-4.397-1.838-4.118-4.444-7.997-3.075-12.87.035-.122-.07-.284-.11-.426-.306.312-.656.59-.91.94-2.975 4.07-1.652 8.18-.084 12.287-.605 1.145-1.208 2.29-1.81 3.437z"/>
  <path fill="#F95A05" fill-rule="evenodd" d="M25.413 48.038c.202-2.923 1.573-5.255 3.677-7.202.283-.262.677-.404 1.02-.603l-.12 1.27c-.874 2.06-1.083 4.172-.13 6.233 1.736 3.758 5.98 6.435 4.888 11.408l-3.57 5.06c-2.723 2.192-5.547 4.69-3.072 8.394 3.007 4.5 7.917 4.807 12.804 4.24 3.014-.35 6.16-1.094 7.243-4.377 1.49-4.52-1.99-7.05-4.596-9.84-3.675-5.216-1.515-10.12.804-15.015.203-.163.5-.285.594-.496 2.477-5.672-1.13-9.392-4.496-12.915C37.11 30.69 33.81 27.41 35.49 21.97c3.91-5.92 8.75-11.425 8.53-19.183-.002-.107.08-.216.12-.325.14.292.32.57.41.877 1.673 5.623.244 10.807-2.148 15.9-.523 1.115-.573 2.453-.84 3.687-1.147 1.9-.765 3.765.582 5.26 1.462 1.625 3.506 1.668 5.304.636 1.554-.892 1.45-2.478.827-4.004-1.568-4.107-2.89-8.216.083-12.288.255-.35.605-.628.91-.94.042.143.146.305.112.427-1.37 4.872 1.237 8.75 3.074 12.87.585 1.31.494 2.922.71 4.397-3.39 4.045-5.71 8.29-2.514 13.56 1.645 4.18-1.112 7.604-1.95 11.356-1.086 3.734-.483 7.136 3.05 9.076 4.392 2.41 9.252 3.164 13.357-.373 3.368-2.902 1.684-6.548-.3-9.505-3.954-5.897-7.973-11.673-6.34-19.36.38-.75.763-1.5 1.145-2.253.073.758.152 1.517.22 2.277.443 5.054 2.873 9.04 6.533 12.42 10.777 9.954 9.757 21.948-2.512 29.97-13.4 8.76-37.344 8.115-50.266-1.355-9.75-7.143-10.897-16.93-3.127-26.23 4.424-5.292 10.71-8.745 14.407-14.768 3.236-5.273 5.295-10.772 4.097-17.086-.048-.252.102-.542.16-.814.175.2.47.377.51.6.497 2.76.958 5.528 1.428 8.29-.358 7.56-4.188 13.42-8.938 18.973-2.465 2.88-4.622 6.12-6.392 9.477-1.998 3.79-.4 6.346 3.76 7.122 3.363.628 6.764.302 8.715-2.78 2.554-4.035-1.75-6.576-2.794-9.848zM44.87 80.783c2.578-.432 6.36-.787 9.996-1.725 10.687-2.76 17.94-11.646 16.74-20.242-.893-6.38-6.203-9.875-9.596-14.63-.987-1.385-1.443-3.147-2.144-4.737-.21 2.576.577 4.872 1.98 6.99.302.454.634.888.96 1.327 7.05 9.5 8.217 15.38 3.707 20.898-7.078 8.658-16.846 10.582-27.34 10.285-2.164-.062-4.315-.567-6.472-.867 2.403.773 4.78 1.635 7.218 2.28 1.196.32 2.5.233 4.953.42zM32.36 55.87l-1.354-2.886c-.102.144-.324.33-.29.426 2.176 6.257-3.044 7.268-6.65 9.488-3.92 2.41-8.53 4.84-5.14 10.537 2.842 4.77 8.017 6.12 13.1 7.176 1.827.38 3.73.393 5.598.57-1.687-.534-3.376-1.06-5.058-1.612-.678-.223-1.355-.46-2.005-.752-9.187-4.123-9.9-9.672-2.055-15.852 1.934-1.523 4.21-2.824 3.854-7.094zM49.78 76.2c3.148-1.2 7.322-1.24 8.475-5.282.783-2.74-1.997-3.84-3.987-4.77-8.722-4.075-10.552-8.158-7.562-17.327.115-.354.092-.756.134-1.135-.333.286-.773.508-.984.866-4.103 6.97-2.678 13.022 4.063 17.376 6.585 4.255 6.533 5.946-.297 9.695-.173.097-.326.23-.488.345.173.062.345.124.645.234zM9.192 57.802c-.017 5.7 5.175 8.48 9.358 6.132.1-.057.173-.154.26-.232-.12-.074-.23-.178-.36-.215-7.09-1.934-8.68-5.9-4.174-12.32 3.764-5.362 8.347-10.147 12.515-15.23.438-.533.526-1.352.776-2.038-.438.512-.858 1.043-1.32 1.534-2.238 2.38-4.395 4.847-6.752 7.104-4.82 4.612-9.713 9.134-10.302 15.265zm33.39-27.08l2.113-.42c-.663-.123-1.326-.238-1.987-.367-3.362-.657-4.08-3.112-3.254-5.81 1.118-3.648 2.806-7.123 4.222-10.684.153-.385.124-.843.18-1.268-.23.113-.57.164-.674.348-1.863 3.272-4.072 6.414-5.445 9.885-1.67 4.225-1.237 7.932 4.846 8.316zm9.104-4.697c-.322-.59-.91-1.8-1.627-2.928-.396-.623-1.005-1.11-1.517-1.66.237.645.47 1.29.712 1.932 1.15 3.047.92 5.762-1.888 7.856-2.994 2.232-3.488 4.952-1.57 8.125.21.346.538.618.81.925-.004-.364.054-.743-.023-1.09-.646-2.924.048-5.36 2.414-7.317 1.563-1.294 2.655-2.914 2.688-5.842z" clip-rule="evenodd"/>
  <path fill="#181146" fill-rule="evenodd" d="M58.466 34.044c-1.632 7.687 2.387 13.462 6.342 19.36 1.983 2.957 3.667 6.603.3 9.505-4.106 3.536-8.966 2.782-13.36.37-3.532-1.94-4.135-5.34-3.048-9.075-.372 4.45 2.515 7.896 5.833 8.46 2.297.39 6.975.14 8.557-3.866.285-.722.42-1.5.625-2.253.252 1.19.52 2.38.746 3.574.068.356.01.735.008 1.105.29-.295.78-.555.844-.893.73-3.943-1.324-7.144-3.938-9.3-4.704-3.876-6.73-13.532-2.908-16.988zM25.413 48.038c1.045 3.272 5.348 5.813 2.794 9.847-1.95 3.082-5.352 3.408-8.714 2.78-4.16-.776-5.76-3.333-3.76-7.122 1.77-3.355 3.925-6.596 6.39-9.477 4.75-5.55 8.58-11.412 8.94-18.973 1.43 6.4.18 11.658-5.034 16.317-4.332 3.87-8.958 8.045-8.697 14.92.067 1.76.643 3.456.99 2.99 1.848-2.473 4.26-.23 6.452-1.048 4.79-1.79 2.492-4.147 1.195-6.553-.654-1.213-1.29-2.312-.557-3.682zM43.556 62.62c2.605 2.79 6.087 5.318 4.596 9.84-1.082 3.284-4.23 4.027-7.243 4.378-4.89.566-9.798.26-12.805-4.24-2.475-3.703.35-6.2 3.072-8.393-.572 2.162.128 4.994-.605 6.436-2.048 4.028 1.958 3.013 2.897 4.4.05.073.605-.052.608-.105.103-1.48.083-1.263 2.067-1.154 2.053.113 4.14-.19 6.195-.446.777-.098 1.507-.57 2.258-.874-.683.715-1.357 1.438-2.053 2.14-.262.263-.576.472-.866.706.4-.07.84-.062 1.2-.23 6.517-3 2.967-7.04 1.13-10.92-.224-.48-.305-1.024-.454-1.537zm-9.174 12.543c-.024-.015-.05-.028-.075-.042l-.006.157c.027-.013.06-.02.077-.04.013-.016.002-.05.005-.074zM35.49 21.97c-1.68 5.44 1.62 8.72 4.967 12.225 3.366 3.522 6.973 7.242 4.496 12.914-.092.21-.39.332-.593.495.927-8.84-6.823-12.526-10.656-18.568-.756-1.193-.784-5.192 1.786-7.068z" clip-rule="evenodd"/>
  <path fill="#181146" fill-rule="evenodd" d="M34.747 59.144c1.093-4.974-3.152-7.65-4.888-11.408-.954-2.062-.745-4.174.13-6.234.808 3.807 1.43 7.424 5.027 10.18 2.207 1.69 1.243 4.99-.27 7.462zM50.65 42.847c-3.196-5.268-.877-9.513 2.514-13.56-.958 4.5-3.64 8.676-2.515 13.56zM48.274 24.82c.623 1.526.727 3.112-.827 4.004-1.798 1.032-3.84.99-5.304-.635-1.347-1.497-1.728-3.36-.583-5.262.08 2.652-.147 5.564 4.056 4.634.176-.04.438.305.66.47l-.34.228.528-.003 1.81-3.437z" clip-rule="evenodd"/>
  <path fill="#CF0600" fill-rule="evenodd" d="M44.87 80.783c-2.453-.187-3.756-.1-4.953-.418-2.437-.646-4.815-1.508-7.217-2.28 2.157.3 4.308.805 6.472.866 10.495.298 20.263-1.626 27.34-10.284 4.51-5.52 3.345-11.398-3.708-20.898-.326-.44-.657-.873-.96-1.328-1.402-2.117-2.19-4.413-1.98-6.99.7 1.59 1.157 3.352 2.145 4.736 3.392 4.756 8.702 8.25 9.594 14.63 1.2 8.597-6.052 17.484-16.74 20.243-3.633.936-7.416 1.29-9.993 1.723z" clip-rule="evenodd"/>
  <path fill="#FDD400" fill-rule="evenodd" d="M32.36 55.87c.356 4.27-1.92 5.57-3.855 7.095-7.847 6.18-7.132 11.73 2.056 15.852.65.29 1.328.53 2.006.752 1.682.55 3.372 1.077 5.058 1.612-1.868-.18-3.77-.19-5.598-.57-5.083-1.056-10.258-2.404-13.1-7.176-3.39-5.697 1.22-8.126 5.14-10.537 3.606-2.222 8.827-3.232 6.65-9.49-.034-.096.187-.28.29-.425l1.353 2.885zM49.78 76.2l-.645-.235c.162-.115.315-.248.488-.344 6.83-3.748 6.882-5.44.296-9.694-6.743-4.354-8.168-10.407-4.064-17.375.21-.357.65-.58.984-.865-.042.38-.02.78-.134 1.136-2.99 9.17-1.16 13.253 7.562 17.327 1.99.93 4.77 2.03 3.987 4.77C57.102 74.96 52.928 75 49.78 76.2z" clip-rule="evenodd"/>
  <path fill="#CF0600" fill-rule="evenodd" d="M9.192 57.803c.59-6.13 5.483-10.653 10.3-15.267 2.358-2.257 4.516-4.723 6.754-7.104.46-.49.88-1.02 1.32-1.534-.25.686-.34 1.505-.776 2.038-4.168 5.083-8.75 9.868-12.515 15.23-4.507 6.42-2.915 10.387 4.173 12.32.13.037.24.14.36.215-.085.08-.16.177-.26.233-4.18 2.352-9.373-.43-9.356-6.13z" clip-rule="evenodd"/>
  <path fill="#FDD400" fill-rule="evenodd" d="M42.583 30.723c-6.084-.383-6.518-4.09-4.846-8.315 1.373-3.47 3.582-6.613 5.445-9.885.105-.184.443-.235.673-.348-.055.425-.025.882-.18 1.268-1.415 3.56-3.103 7.035-4.22 10.685-.828 2.696-.108 5.152 3.253 5.81.66.128 1.325.243 1.987.365-.767.152-1.535.304-2.112.42z" clip-rule="evenodd"/>
  <path fill="#CF0600" fill-rule="evenodd" d="M51.686 26.026c-.032 2.927-1.125 4.548-2.688 5.842-2.366 1.958-3.06 4.393-2.414 7.316.077.35.02.727.023 1.09-.272-.306-.6-.578-.81-.923-1.918-3.173-1.424-5.893 1.57-8.124 2.81-2.094 3.04-4.81 1.888-7.856-.243-.642-.476-1.287-.712-1.93.512.547 1.12 1.035 1.516 1.658.715 1.13 1.304 2.34 1.626 2.928z" clip-rule="evenodd"/>
  <g>
    <g fill-rule="evenodd" clip-rule="evenodd">
      <path d="M40.176 49.814c-.467.45-.493.918-.63 1.344C37.59 57.228 37 63.608 35.39 69.75c-.9 3.432-2.922 6.303-5.572 8.68-.698.627-1.627.822-2.54.947-.49.066-1.085.188-1.285-.46-.193-.63.317-.903.78-1.118.454-.214.926-.42 1.413-.536 1.773-.42 2.68-1.646 3.17-3.29 1.11-3.728 2.363-7.42 3.3-11.19.89-3.58 2.137-7.076 2.51-10.79.194-1.927 1.433-3.63 1.3-5.687-.14-2.187-.66-4.147-2.355-5.675-1.23-1.108-2.33-2.326-3.295-3.694-.896-1.27-2.524-1.76-3.497-3.062-.835-1.118-1.645-2.23-2.102-3.532-1-2.85-1.97-5.708-3.12-8.503-.31-.75-.444-1.61.314-2.134.857-.594 1.77-.29 2.564.274.758.538.87 1.26.45 2.065-.476.908-.598 1.835-.145 2.775 1.213 2.52 2.18 5.152 3.69 7.54 1.716 2.713 4.443 4.045 7.068 5.546.292.167.57.245.7-.26.287-1.117-.312-2.72-1.352-3.315-1.873-1.07-2.834-2.632-2.82-4.816.007-.91-.23-1.828-.194-2.736.115-2.925 2.236-4.28 4.503-5.4 2.04-1.01 3.918-.42 5.65.9 1.82 1.39 3.63 2.76 3.285 5.46-.247 1.928-.77 3.762-2.48 4.866-2.093 1.348-2.09 3.523-2.453 5.563-.143.803.427.936 1.052.71 1.09-.39 2.103-.95 2.915-1.785 3.204-3.29 6.55-6.48 8.58-10.7 1.124-2.34 1.765-4.816 1.447-7.45-.06-.506-.078-.993-.042-1.503.082-1.138.587-1.85 1.773-1.717 1.28.143 2.37 1.594 1.77 2.576-1.79 2.915-2.082 6.357-3.514 9.362-1.81 3.796-4.373 7.062-7.506 9.907-3.36 3.05-5.234 7.02-6.78 11.226-.738 2.014-1.035 4.053-1.36 6.126-.42 2.657.58 4.98 1.674 7.25.585 1.216.942 2.483 1.315 3.747 1.026 3.48 2.333 6.844 3.967 10.085.328.65.787 1.108 1.443 1.398.25.11.513.22.73.383.685.514 1.424 1.186.85 2.04-.582.858-1.335.103-1.906-.27-.85-.554-1.68-1.224-2.076-2.167-1.48-3.526-3.71-6.647-5.313-10.12-2.15-4.656-2.5-9.417-1.688-14.362.194-1.186.23-1.81-.034-3.094zm-1.77-20.77c.03 1.856.59 2.835 2.313 3.32 1.36.383 2.343-.565 3.09-1.572.693-.93 1.6-1.85 1.328-3.172-.237-1.152-3.12-3.126-4.306-3.034-1.014.08-2.255 1.784-2.424 3.363-.038.36-.005.73-.002 1.094z"/>
      <path d="M41.187 50.193c-.467.45-.493.918-.63 1.344-1.957 6.07-2.547 12.45-4.158 18.592-.9 3.43-2.922 6.302-5.572 8.68-.698.626-1.627.82-2.54.946-.49.066-1.085.188-1.285-.46-.193-.63.317-.903.78-1.118.454-.213.926-.42 1.413-.535 1.773-.42 2.68-1.646 3.17-3.29 1.11-3.728 2.363-7.42 3.3-11.19.89-3.58 2.137-7.076 2.51-10.79.194-1.927 1.433-3.63 1.3-5.687-.14-2.187-.66-4.147-2.355-5.675-1.23-1.107-2.33-2.325-3.295-3.693-.896-1.27-2.524-1.76-3.497-3.062-.835-1.118-1.645-2.23-2.102-3.532-1-2.85-1.97-5.708-3.12-8.503-.31-.75-.444-1.61.314-2.135.857-.594 1.77-.29 2.564.274.758.537.87 1.26.45 2.064-.476.908-.598 1.835-.145 2.775 1.213 2.52 2.18 5.15 3.69 7.54 1.716 2.712 4.443 4.044 7.068 5.545.292.167.57.245.7-.26.287-1.117-.312-2.72-1.352-3.315-1.873-1.07-2.834-2.633-2.82-4.817.007-.91-.23-1.828-.194-2.736.115-2.925 2.236-4.28 4.503-5.4 2.04-1.01 3.918-.42 5.65.9 1.82 1.39 3.63 2.76 3.285 5.46-.247 1.928-.77 3.762-2.48 4.866-2.093 1.348-2.09 3.523-2.453 5.563-.143.803.427.936 1.052.71 1.09-.39 2.103-.95 2.915-1.785 3.204-3.29 6.55-6.48 8.58-10.7 1.124-2.34 1.765-4.815 1.447-7.45-.06-.505-.078-.992-.042-1.502.082-1.137.587-1.848 1.773-1.716 1.28.143 2.37 1.594 1.77 2.576-1.79 2.916-2.082 6.358-3.514 9.363-1.81 3.797-4.373 7.063-7.506 9.908-3.36 3.05-5.234 7.022-6.78 11.227-.738 2.014-1.035 4.053-1.36 6.126-.42 2.658.58 4.98 1.674 7.252.585 1.215.942 2.482 1.315 3.746 1.026 3.482 2.333 6.845 3.967 10.086.328.65.787 1.108 1.443 1.398.25.11.513.22.73.383.685.514 1.424 1.186.85 2.04-.582.858-1.335.103-1.906-.27-.85-.554-1.68-1.224-2.076-2.167-1.48-3.525-3.71-6.646-5.313-10.118-2.15-4.657-2.5-9.418-1.688-14.363.195-1.186.23-1.81-.033-3.094zm-1.77-20.77c.03 1.856.59 2.835 2.313 3.32 1.362.383 2.344-.565 3.092-1.572.692-.93 1.6-1.85 1.327-3.17-.238-1.153-3.12-3.127-4.307-3.035-1.014.08-2.255 1.784-2.424 3.363-.04.36-.006.73-.003 1.095z"/>
      <path d="M40.43 50.067c-.468.45-.494.918-.63 1.344-1.958 6.072-2.548 12.45-4.16 18.593-.898 3.432-2.92 6.303-5.57 8.68-.698.627-1.627.822-2.54.947-.49.066-1.085.188-1.285-.46-.193-.63.317-.903.78-1.118.454-.213.926-.42 1.413-.535 1.773-.42 2.68-1.646 3.17-3.29 1.11-3.728 2.363-7.42 3.3-11.19.89-3.58 2.137-7.076 2.51-10.79.194-1.927 1.433-3.63 1.3-5.687-.14-2.187-.66-4.148-2.355-5.676-1.23-1.108-2.33-2.326-3.296-3.694-.896-1.27-2.524-1.76-3.497-3.062-.835-1.118-1.645-2.23-2.102-3.532-1-2.85-1.97-5.708-3.12-8.503-.31-.75-.444-1.61.314-2.135.857-.594 1.77-.29 2.564.274.758.538.87 1.26.45 2.065-.476.908-.598 1.835-.145 2.775 1.215 2.52 2.18 5.152 3.69 7.54 1.718 2.713 4.445 4.045 7.07 5.546.292.167.57.245.7-.26.287-1.117-.312-2.72-1.352-3.315-1.873-1.07-2.834-2.633-2.82-4.817.007-.91-.23-1.828-.194-2.736.115-2.925 2.236-4.28 4.503-5.4 2.04-1.01 3.918-.42 5.65.9 1.82 1.39 3.63 2.76 3.285 5.46-.247 1.928-.77 3.762-2.48 4.866-2.093 1.348-2.09 3.523-2.453 5.563-.144.802.426.935 1.05.71 1.092-.39 2.105-.952 2.917-1.786 3.204-3.29 6.55-6.48 8.58-10.7 1.124-2.34 1.765-4.816 1.447-7.45-.06-.506-.078-.993-.042-1.503.082-1.136.587-1.847 1.773-1.715 1.28.143 2.37 1.594 1.77 2.576-1.79 2.917-2.082 6.36-3.514 9.364-1.808 3.796-4.37 7.062-7.504 9.907-3.36 3.052-5.234 7.024-6.78 11.228-.738 2.014-1.035 4.053-1.36 6.126-.42 2.657.58 4.98 1.674 7.25.585 1.216.942 2.483 1.315 3.747 1.026 3.483 2.333 6.846 3.967 10.087.328.65.787 1.108 1.443 1.398.25.11.513.22.73.383.685.514 1.424 1.186.85 2.04-.582.858-1.335.103-1.906-.27-.85-.554-1.68-1.224-2.077-2.167-1.482-3.524-3.71-6.645-5.314-10.117-2.15-4.657-2.5-9.418-1.69-14.363.197-1.185.232-1.808-.03-3.093zm-1.77-20.77c.028 1.856.588 2.835 2.312 3.32 1.362.383 2.344-.565 3.092-1.572.692-.93 1.6-1.85 1.327-3.172-.236-1.152-3.12-3.126-4.305-3.034-1.014.078-2.255 1.783-2.424 3.362-.037.36-.004.73 0 1.095z"/>
      <path d="M41.44 50.446c-.468.45-.494.918-.63 1.344-1.958 6.07-2.548 12.45-4.16 18.592-.898 3.432-2.92 6.303-5.57 8.68-.698.627-1.627.822-2.54.947-.49.065-1.085.187-1.285-.462-.193-.63.317-.902.78-1.117.454-.212.926-.418 1.413-.534 1.773-.42 2.68-1.646 3.17-3.29 1.11-3.728 2.363-7.42 3.3-11.19.89-3.58 2.137-7.076 2.51-10.79.194-1.927 1.433-3.63 1.3-5.687-.14-2.188-.66-4.148-2.355-5.677-1.23-1.108-2.33-2.326-3.296-3.694-.896-1.27-2.524-1.762-3.497-3.063-.835-1.118-1.645-2.23-2.102-3.532-1-2.85-1.97-5.708-3.12-8.503-.31-.75-.444-1.61.314-2.135.857-.594 1.77-.29 2.564.274.758.54.87 1.262.45 2.066-.476.908-.598 1.835-.145 2.775 1.215 2.52 2.18 5.153 3.69 7.54 1.718 2.714 4.445 4.046 7.07 5.547.292.167.57.245.7-.26.287-1.117-.312-2.72-1.352-3.315-1.873-1.07-2.834-2.633-2.82-4.817.007-.91-.23-1.828-.194-2.736.115-2.926 2.236-4.28 4.503-5.402 2.04-1.01 3.918-.42 5.65.9 1.82 1.39 3.63 2.762 3.285 5.46-.247 1.93-.77 3.763-2.48 4.867-2.093 1.348-2.09 3.523-2.453 5.563-.144.803.426.936 1.05.71 1.092-.39 2.105-.95 2.917-1.785 3.204-3.29 6.55-6.48 8.58-10.7 1.124-2.34 1.765-4.816 1.447-7.45-.06-.506-.078-.993-.042-1.503.082-1.137.587-1.848 1.773-1.716 1.28.143 2.37 1.594 1.77 2.576-1.79 2.916-2.082 6.358-3.514 9.363-1.808 3.796-4.37 7.062-7.504 9.907-3.36 3.05-5.234 7.023-6.78 11.227-.738 2.014-1.035 4.053-1.36 6.126-.42 2.657.58 4.98 1.674 7.25.585 1.216.942 2.483 1.315 3.747 1.026 3.482 2.333 6.845 3.967 10.086.328.65.787 1.108 1.443 1.398.25.11.513.22.73.383.685.514 1.424 1.186.85 2.04-.582.858-1.335.103-1.906-.27-.85-.554-1.68-1.224-2.077-2.167-1.482-3.525-3.71-6.646-5.314-10.118-2.15-4.657-2.5-9.418-1.69-14.363.197-1.186.233-1.81-.03-3.094zm-1.77-20.77c.028 1.856.588 2.835 2.312 3.32 1.362.383 2.344-.565 3.092-1.572.692-.93 1.6-1.85 1.327-3.172-.236-1.152-3.12-3.126-4.305-3.034-1.014.08-2.255 1.784-2.424 3.363-.037.362-.004.73 0 1.096z"/>
    </g>
    <g fill-rule="evenodd" clip-rule="evenodd">
      <path d="M40.303 49.56c-.467.45-.493.92-.63 1.345-1.957 6.07-2.547 12.45-4.158 18.592-.9 3.432-2.92 6.303-5.57 8.68-.7.627-1.628.822-2.54.947-.49.066-1.086.188-1.286-.46-.194-.63.316-.903.778-1.118.455-.213.927-.42 1.414-.535 1.773-.418 2.68-1.645 3.17-3.29 1.11-3.727 2.363-7.418 3.3-11.188.89-3.58 2.137-7.077 2.51-10.79.194-1.928 1.433-3.632 1.3-5.688-.14-2.187-.66-4.147-2.355-5.675-1.23-1.11-2.33-2.327-3.296-3.695-.895-1.27-2.523-1.76-3.496-3.062-.835-1.118-1.645-2.23-2.102-3.532-1-2.85-1.97-5.707-3.12-8.502-.31-.75-.444-1.61.314-2.135.857-.594 1.77-.29 2.564.274.758.538.87 1.26.45 2.065-.476.908-.598 1.835-.145 2.775 1.214 2.52 2.18 5.152 3.69 7.54 1.717 2.713 4.444 4.045 7.07 5.546.29.167.57.245.7-.26.286-1.117-.313-2.72-1.353-3.315-1.873-1.07-2.834-2.633-2.82-4.817.007-.91-.23-1.827-.194-2.735.115-2.925 2.236-4.28 4.503-5.4 2.042-1.01 3.92-.42 5.65.9 1.822 1.39 3.63 2.76 3.286 5.46-.247 1.928-.77 3.762-2.48 4.866-2.093 1.35-2.09 3.524-2.453 5.564-.143.803.427.936 1.052.71 1.09-.39 2.104-.95 2.916-1.785 3.205-3.292 6.552-6.48 8.58-10.702 1.125-2.34 1.766-4.815 1.448-7.45-.06-.505-.078-.992-.042-1.502.082-1.137.587-1.848 1.773-1.716 1.28.143 2.37 1.594 1.77 2.576-1.79 2.916-2.083 6.358-3.515 9.363-1.81 3.795-4.372 7.06-7.505 9.906-3.36 3.05-5.234 7.022-6.78 11.226-.738 2.014-1.035 4.053-1.36 6.126-.42 2.657.58 4.98 1.674 7.25.585 1.216.942 2.483 1.315 3.747 1.025 3.482 2.332 6.845 3.966 10.086.328.65.787 1.11 1.443 1.4.25.11.512.218.73.382.684.514 1.423 1.186.848 2.04-.58.858-1.334.103-1.905-.27-.85-.554-1.68-1.224-2.076-2.167-1.482-3.525-3.71-6.646-5.314-10.118-2.15-4.657-2.5-9.418-1.688-14.363.196-1.185.23-1.808-.032-3.093zm-1.77-20.768c.03 1.856.59 2.835 2.313 3.32 1.362.383 2.344-.565 3.092-1.572.692-.93 1.6-1.85 1.327-3.172-.237-1.152-3.12-3.126-4.306-3.034-1.015.08-2.256 1.784-2.425 3.363-.038.36-.005.73-.002 1.095z"/>
      <path d="M41.313 49.94c-.467.45-.493.918-.63 1.344-1.957 6.07-2.547 12.45-4.158 18.592-.9 3.432-2.92 6.303-5.57 8.68-.7.627-1.628.822-2.54.947-.49.066-1.086.188-1.286-.46-.194-.63.316-.903.778-1.118.455-.213.927-.42 1.414-.535 1.773-.42 2.68-1.646 3.17-3.29 1.11-3.728 2.363-7.42 3.3-11.19.89-3.58 2.137-7.076 2.51-10.79.194-1.927 1.433-3.63 1.3-5.687-.14-2.187-.66-4.147-2.355-5.675-1.23-1.108-2.33-2.326-3.296-3.694-.895-1.27-2.523-1.76-3.496-3.062-.835-1.118-1.645-2.23-2.102-3.532-1-2.85-1.97-5.708-3.12-8.503-.31-.75-.444-1.61.314-2.135.857-.594 1.77-.29 2.564.274.758.538.87 1.26.45 2.065-.476.91-.598 1.836-.145 2.776 1.214 2.52 2.18 5.152 3.69 7.54 1.717 2.713 4.444 4.045 7.07 5.546.29.167.57.245.7-.26.286-1.117-.313-2.72-1.353-3.315-1.873-1.07-2.834-2.633-2.82-4.817.007-.91-.23-1.828-.194-2.736.115-2.925 2.236-4.28 4.503-5.4 2.042-1.01 3.92-.42 5.65.9 1.822 1.39 3.63 2.76 3.286 5.46-.247 1.928-.77 3.762-2.48 4.866-2.093 1.348-2.09 3.523-2.453 5.563-.143.803.427.936 1.052.71 1.09-.39 2.104-.95 2.916-1.785 3.205-3.29 6.552-6.48 8.58-10.7 1.125-2.34 1.766-4.816 1.448-7.45-.06-.506-.078-.993-.042-1.503.082-1.137.587-1.848 1.773-1.716 1.28.142 2.37 1.593 1.77 2.575-1.79 2.916-2.083 6.358-3.515 9.363-1.81 3.796-4.372 7.062-7.505 9.907-3.36 3.05-5.234 7.022-6.78 11.226-.738 2.015-1.035 4.054-1.36 6.127-.42 2.657.58 4.98 1.674 7.25.585 1.216.942 2.483 1.315 3.747 1.025 3.482 2.332 6.845 3.966 10.086.328.65.787 1.108 1.443 1.398.25.11.512.22.73.383.684.515 1.423 1.187.848 2.04-.58.86-1.334.104-1.905-.268-.85-.555-1.68-1.225-2.076-2.168-1.482-3.525-3.71-6.646-5.314-10.118-2.15-4.657-2.5-9.418-1.688-14.363.196-1.185.232-1.808-.032-3.093zm-1.77-20.77c.03 1.857.59 2.836 2.313 3.32 1.362.384 2.344-.564 3.092-1.57.692-.932 1.6-1.85 1.327-3.173-.237-1.152-3.12-3.126-4.306-3.034-1.015.08-2.256 1.784-2.425 3.363-.038.36-.005.73-.002 1.095z"/>
    </g>
    <path fill="#FFDC00" fill-rule="evenodd" d="M40.555 49.814c-.467.45-.493.918-.63 1.344-1.957 6.07-2.547 12.45-4.158 18.592-.9 3.432-2.92 6.303-5.57 8.68-.7.627-1.628.822-2.54.947-.49.066-1.086.188-1.286-.46-.192-.63.318-.903.78-1.118.455-.214.927-.42 1.414-.536 1.773-.42 2.68-1.646 3.17-3.29 1.11-3.728 2.363-7.42 3.3-11.19.89-3.58 2.137-7.076 2.51-10.79.194-1.927 1.433-3.63 1.3-5.687-.14-2.187-.66-4.147-2.355-5.675-1.23-1.108-2.332-2.326-3.297-3.694-.896-1.27-2.524-1.76-3.497-3.062-.835-1.118-1.645-2.23-2.102-3.532-1-2.85-1.97-5.708-3.12-8.503-.31-.75-.444-1.61.314-2.134.857-.594 1.77-.29 2.564.274.758.538.87 1.26.45 2.065-.476.908-.598 1.835-.145 2.775 1.214 2.52 2.18 5.152 3.69 7.54 1.717 2.713 4.444 4.045 7.07 5.546.29.167.57.245.7-.26.286-1.117-.313-2.72-1.353-3.315-1.873-1.07-2.834-2.632-2.82-4.816.007-.91-.23-1.828-.194-2.736.115-2.925 2.236-4.28 4.503-5.4 2.04-1.01 3.918-.42 5.65.9 1.82 1.39 3.63 2.76 3.285 5.46-.247 1.928-.77 3.762-2.48 4.866-2.093 1.348-2.09 3.523-2.453 5.563-.143.803.427.936 1.052.71 1.09-.39 2.104-.95 2.916-1.785 3.204-3.29 6.55-6.48 8.58-10.7 1.124-2.34 1.765-4.816 1.447-7.45-.06-.506-.078-.993-.042-1.503.082-1.138.587-1.85 1.773-1.717 1.282.143 2.372 1.594 1.77 2.576-1.788 2.915-2.08 6.357-3.513 9.362-1.81 3.796-4.372 7.062-7.505 9.907-3.36 3.05-5.234 7.02-6.78 11.226-.738 2.014-1.035 4.053-1.36 6.126-.42 2.657.58 4.98 1.674 7.25.585 1.216.942 2.483 1.315 3.747 1.027 3.48 2.334 6.844 3.968 10.085.328.65.787 1.108 1.443 1.398.252.11.514.22.73.383.686.514 1.425 1.186.85 2.04-.58.858-1.334.103-1.905-.27-.85-.554-1.68-1.224-2.076-2.167-1.483-3.526-3.712-6.647-5.315-10.12-2.15-4.656-2.5-9.417-1.688-14.362.196-1.186.232-1.81-.032-3.094zm-1.77-20.77c.03 1.856.59 2.835 2.313 3.32 1.362.383 2.344-.565 3.092-1.572.692-.93 1.6-1.85 1.327-3.172-.237-1.152-3.12-3.126-4.306-3.034-1.013.08-2.254 1.784-2.423 3.363-.038.36-.005.73-.002 1.094z" clip-rule="evenodd"/>
    <path fill="#FDD400" fill-rule="evenodd" d="M41.565 50.193c-.467.45-.493.918-.63 1.344-1.957 6.07-2.547 12.45-4.158 18.592-.9 3.43-2.92 6.302-5.57 8.68-.7.626-1.628.82-2.54.946-.49.066-1.086.188-1.286-.46-.192-.63.318-.903.78-1.118.455-.213.927-.42 1.414-.535 1.773-.42 2.68-1.646 3.17-3.29 1.11-3.728 2.363-7.42 3.3-11.19.89-3.58 2.137-7.076 2.51-10.79.194-1.927 1.433-3.63 1.3-5.687-.14-2.187-.66-4.147-2.355-5.675-1.23-1.107-2.332-2.325-3.297-3.693-.896-1.27-2.524-1.76-3.497-3.062-.835-1.118-1.645-2.23-2.102-3.532-1-2.85-1.97-5.708-3.12-8.503-.31-.75-.444-1.61.314-2.135.857-.594 1.77-.29 2.564.274.758.537.87 1.26.45 2.064-.476.908-.598 1.835-.145 2.775 1.214 2.52 2.18 5.15 3.69 7.54 1.717 2.712 4.444 4.044 7.07 5.545.29.167.57.245.7-.26.286-1.117-.313-2.72-1.353-3.315-1.873-1.07-2.834-2.633-2.82-4.817.007-.91-.23-1.828-.194-2.736.115-2.925 2.236-4.28 4.503-5.4 2.04-1.01 3.918-.42 5.65.9 1.82 1.39 3.63 2.76 3.285 5.46-.247 1.928-.77 3.762-2.48 4.866-2.093 1.348-2.09 3.523-2.453 5.563-.143.803.427.936 1.052.71 1.09-.39 2.104-.95 2.916-1.785 3.204-3.29 6.55-6.48 8.58-10.7 1.124-2.34 1.765-4.815 1.447-7.45-.06-.505-.078-.992-.042-1.502.082-1.137.587-1.848 1.773-1.716 1.282.143 2.372 1.594 1.77 2.576-1.788 2.916-2.08 6.358-3.513 9.363-1.81 3.797-4.372 7.063-7.505 9.908-3.36 3.05-5.234 7.022-6.78 11.227-.738 2.014-1.035 4.053-1.36 6.126-.42 2.658.58 4.98 1.674 7.252.585 1.215.942 2.482 1.315 3.746 1.027 3.482 2.334 6.845 3.968 10.086.328.65.787 1.108 1.443 1.398.252.11.514.22.73.383.686.514 1.425 1.186.85 2.04-.58.858-1.334.103-1.905-.27-.85-.554-1.68-1.224-2.076-2.167-1.483-3.525-3.712-6.646-5.315-10.118-2.15-4.657-2.5-9.418-1.688-14.363.196-1.186.232-1.81-.032-3.094zm-1.77-20.77c.03 1.856.59 2.835 2.313 3.32 1.362.383 2.344-.565 3.092-1.572.692-.93 1.6-1.85 1.327-3.17-.237-1.153-3.12-3.127-4.306-3.035-1.013.08-2.254 1.784-2.423 3.363-.038.36-.005.73-.002 1.095z" clip-rule="evenodd"/>
  </g>
</svg>