<svg xmlns="http://www.w3.org/2000/svg" viewBox="0 0 321.29 75.862" height="286.724" width="1214.325" style="enable-background:new">
  <defs>
    <clipPath clipPathUnits="userSpaceOnUse" id="c">
      <path style="opacity:1;fill:none;fill-opacity:1;fill-rule:nonzero;stroke:#000;stroke-width:1.58294;stroke-miterlimit:4;stroke-dasharray:none;stroke-opacity:1" d="M0 0h159.506v159.128H0z"/>
    </clipPath>
    <clipPath clipPathUnits="userSpaceOnUse" id="a"/>
    <linearGradient id="d">
      <stop offset="0" style="stop-color:#000;stop-opacity:1"/>
      <stop offset="1" style="stop-color:#9ba3a8;stop-opacity:1"/>
    </linearGradient>
    <filter style="color-interpolation-filters:sRGB" id="b">
      <feTurbulence numOctaves="3" baseFrequency="0.040 0.107" type="fractalNoise"/>
      <feColorMatrix result="result0" values="1 0 0 0 0 0 1 0 0 0 0 0 1 0 0 0 0 0 5 -2.7"/>
      <feFlood flood-opacity="1" flood-color="#FFF"/>
      <feComposite operator="in" in2="result0"/>
      <feComposite operator="atop" in2="SourceGraphic" result="fbSourceGraphic"/>
      <feColorMatrix result="fbSourceGraphicAlpha" in="fbSourceGraphic" values="0 0 0 -1 0 0 0 0 -1 0 0 0 0 -1 0 0 0 0 1 0"/>
      <feTurbulence type="fractalNoise" baseFrequency="0.15958 0.26597" numOctaves="5" seed="13" result="turbulence"/>
      <feComposite in2="turbulence" in="fbSourceGraphic" operator="in" result="composite1"/>
      <feColorMatrix values="1 0 0 0 0 0 1 0 0 0 0 0 1 0 0 0 0 0 2.3 -0.7" result="color"/>
      <feFlood flood-opacity="1" flood-color="#152839" result="flood"/>
      <feMerge result="merge">
        <feMergeNode in="flood"/>
        <feMergeNode in="color"/>
      </feMerge>
      <feComposite in2="fbSourceGraphic" operator="in" result="fbSourceGraphic"/>
      <feColorMatrix result="fbSourceGraphicAlpha" in="fbSourceGraphic" values="0 0 0 -1 0 0 0 0 -1 0 0 0 0 -1 0 0 0 0 1 0"/>
      <feTurbulence type="fractalNoise" baseFrequency="0.21278 0.15958" numOctaves="5" seed="29" result="turbulence"/>
      <feComposite in2="turbulence" in="fbSourceGraphic" operator="in" result="composite1"/>
      <feColorMatrix values="1 0 0 0 0 0 1 0 0 0 0 0 1 0 0 0 0 0 4.17 -1.03" result="color"/>
      <feFlood flood-opacity="1" flood-color="#F5F5F5" result="flood"/>
      <feMerge result="merge">
        <feMergeNode in="flood"/>
        <feMergeNode in="color"/>
      </feMerge>
      <feComposite in2="fbSourceGraphic" operator="in" result="fbSourceGraphic"/>
      <feColorMatrix result="fbSourceGraphicAlpha" in="fbSourceGraphic" values="0 0 0 -1 0 0 0 0 -1 0 0 0 0 -1 0 0 0 0 1 0"/>
      <feTurbulence type="fractalNoise" baseFrequency="0.23937 0.23937" numOctaves="5" seed="194" result="turbulence"/>
      <feComposite in2="turbulence" in="fbSourceGraphic" operator="in" result="composite1"/>
      <feColorMatrix values="1 0 0 0 0 0 1 0 0 0 0 0 1 0 0 0 0 0 6.21 -2.13" result="color"/>
      <feFlood flood-opacity="1" flood-color="#FFFFF4" result="flood"/>
      <feMerge result="merge">
        <feMergeNode in="flood"/>
        <feMergeNode in="color"/>
      </feMerge>
      <feComposite in2="fbSourceGraphic" operator="in" result="composite2"/>
    </filter>
  </defs>
  <g style="display:inline">
    <g style="display:inline">
      <g style="display:inline;opacity:1;fill:#feffff;fill-opacity:1;stroke:#fff;stroke-width:1.03006;stroke-miterlimit:4;stroke-dasharray:none;stroke-opacity:1;enable-background:new">
        <path style="font-style:normal;font-variant:normal;font-weight:400;font-stretch:normal;font-size:47.9627px;line-height:1.25;font-family:QumpellkaNo12;-inkscape-font-specification:QumpellkaNo12;letter-spacing:0;word-spacing:0;fill:#feffff;fill-opacity:1;stroke:#fff;stroke-width:1.03006;stroke-miterlimit:4;stroke-dasharray:none;stroke-opacity:1" d="m179.231 65.06-.463.136c.362 3.92 2.096 5.498 4.796 5.498h.423c4.696-.273 5.986-8.845 6.772-13.39l2.72-15.73c.383-2.286 2.056-10.641 2.318-13.77.726.027 1.471.027 2.217.027 5.34 0 10.923-.626 13.744-4.3.746-1.116 1.048-2.178 1.048-3.13 0-2.667-1.43-4.436-3.567-4.436-1.693 0-3.123 1.823-3.123 4.218 0 1.143.342 2.232.927 2.994-2.782 3.02-8.042 3.13-14.773 3.13h-1.733c-7.396 0-15.296-.327-16.203-.381l-.182 1.959c1.089-.109 6.49-.19 10.782-.218v.055c.202-.028.404-.028.605-.055h.766c1.532.055 2.015.599 2.015 2.232 0 .79-.12 1.823-.282 3.157l-3.648 30.398c-.362 2.885-1.733 4.137-2.982 4.137-1.068 0-2.036-.898-2.177-2.53zm33.092-3.647-.343-.272-1.39 3.647c-.625 1.633-1.814 2.53-2.822 2.53-.947 0-1.753-.816-1.753-2.557 0-.463.06-.98.181-1.579l.988-4.79c.463-2.34 2.196-11.402 2.398-14.369h-4.797c-2.216 0-4.212.626-5.542 4.137l-1.169 3.075.363.245 1.169-3.075c.625-1.633 1.35-2.64 1.834-2.64.363 0 .605.517.605 1.742 0 .571-.04 1.279-.162 2.122l-.967 7.403c-.262 1.905-.685 4.545-.685 6.967 0 4.3 2.378 6.477 4.937 6.477 2.096 0 4.273-1.443 5.381-4.355zM221.573 43.751c-2.217 0-4.212.79-5.542 4.3l-1.169 3.075.363.245 1.169-3.075c.604-1.606 1.31-2.585 1.814-2.585.362 0 .624.544.624 1.85 0 .544-.06 1.225-.161 2.068l-2.398 19.323c0 .027-.04.354-.04.38 0 .545 1.39.817 2.74.817h2.439c.12 0 .383-.109.403-.3l2.156-11.456c.222-1.252.585-2.885.867-4.6l5.018-5.606c.907-.98 2.015-2.014 2.842-2.014.886 0 1.148 1.062 1.148 2.45 0 1.768-.443 4.109-.685 5.633l-.483 2.912c-.323 1.987-.524 3.973-.524 5.824 0 4.354 1.189 7.81 5.018 7.81 1.612 0 3.305-1.415 4.534-4.68l1.874-4.98-.342-.273-1.491 3.919c-.625 1.633-1.673 2.504-2.54 2.504-.766 0-1.39-.708-1.39-2.232 0-.517.08-1.143.241-1.878l1.089-4.79c.604-2.72 1.189-5.796 1.189-8.436 0-3.647-1.109-6.477-4.837-6.477-1.753 0-4.07 1.225-6.288 3.674l-4.09 4.545c.08-.844.14-1.66.14-2.45 0-3.048-.826-5.497-3.688-5.497zM246.966 65.06l-.463.136c.362 3.92 2.096 5.498 4.796 5.498 5.12 0 6.429-8.6 7.195-13.39l2.015-11.866h10.802l.101-1.96-10.661.545.705-4.082c.383-2.34 1.532-10.94 1.713-13.934 6.43-.163 12.072-.571 16.667-.571 7.114 0 11.69.98 12.616 5.28 2.298 0 3.83-1.906 3.83-4.763 0-3.51-2.822-5.389-8.042-5.389-7.86 0-20.355 4.164-30.451 4.164-1.532 0-4.958-.027-6.712-.218l.101 1.688c.484-.028 2.036-.055 3.527-.082 1.19.136 1.592.708 1.592 2.177 0 .79-.12 1.796-.282 3.13l-3.89 32.031c-.362 2.858-1.753 4.137-3.002 4.137-1.048 0-2.016-.898-2.157-2.53z" transform="matrix(1.02745 0 0 1.02745 -175.7 -13.228)"/>
        <path style="font-style:normal;font-variant:normal;font-weight:400;font-stretch:normal;font-size:47.9627px;line-height:1.25;font-family:QumpellkaNo12;-inkscape-font-specification:QumpellkaNo12;letter-spacing:0;word-spacing:0;fill:#feffff;fill-opacity:1;stroke:#fff;stroke-width:1.03006;stroke-miterlimit:4;stroke-dasharray:none;stroke-opacity:1" d="M281.489 69.333c-2.66 0-3.91-1.742-3.91-6.096 0-9.199 3.204-18.425 7.437-18.425 2.478 0 3.788 2.45 3.788 7.076 0 9.988-3.103 17.445-7.315 17.445zm3.728-25.881c-7.78 0-13.664 5.66-13.664 16.437 0 6.586 3.668 10.805 9.734 10.805 7.578 0 13.725-6.532 13.725-17.091 0-6.613-3.366-10.151-9.795-10.151zM303.053 29.736c0 2.286 1.35 4.218 3.123 4.218 1.673 0 3.124-1.824 3.124-4.218 0-2.286-1.37-4.219-3.124-4.219-1.692 0-3.123 1.824-3.123 4.219zm8.444 31.677-.343-.272-1.39 3.647c-.625 1.633-1.814 2.53-2.822 2.53-.947 0-1.753-.816-1.753-2.557 0-.463.06-.98.181-1.579l.988-4.79c.463-2.34 2.197-11.402 2.398-14.369h-4.796c-2.217 0-4.212.626-5.543 4.137l-1.168 3.075.362.245 1.17-3.075c.624-1.633 1.35-2.64 1.833-2.64.363 0 .605.517.605 1.742 0 .571-.06 1.279-.161 2.122l-.968 7.403c-.262 1.905-.685 4.545-.685 6.967 0 4.3 2.378 6.477 4.938 6.477 2.095 0 4.272-1.443 5.38-4.355zM320.929 28.783s-1.915-.027-3.144-.054l-.04.544c.403 0 .665 0 .665 1.197 0 .79-.121 2.069-.383 4.191l-2.802 22.37c-.242 1.824-.544 4.3-.544 6.641 0 4.6 2.237 6.885 4.656 6.885 1.954 0 4.03-1.496 5.139-4.436l1.773-4.708-.342-.272-1.391 3.647c-.524 1.388-1.935 2.53-3.104 2.53-.947 0-1.713-.761-1.713-2.748 0-.408.04-.87.121-1.388l3.507-20.002c.403-2.34 2.197-11.485 2.378-14.451zM353.839 25.517l-4.797.055s-3.627-.055-5.945-.082l-.06.544c2.64 0 3.406.273 3.406 2.205 0 .762-.121 1.796-.303 3.184l-2.035 16.03c-.605-.028-1.19-.082-1.713-.082-8.182 0-13.644 7.157-13.644 17.934 0 5.116 2.136 8.545 5.32 8.545 9.876 0 13.1-8.028 15.74-24.03 3.648.68 8.505 1.442 12.153 1.551l-1.955 15.322c-.08.571-.121 1.17-.121 1.796 0 9.09 4.615 15.131 11.528 15.131 4.816 0 8-2.258 8-5.687 0-2.34-2.6-3.048-3.647-3.048 0 4.027-2.64 6.749-5.502 6.749-4.253 0-6.107-1.633-6.107-6.777 0-1.279.222-2.857.444-4.19l3.365-20.003c2.217-.762 3.89-2.178 4.656-4.627l-1.19-.925c-.402 1.551-1.49 2.558-3.063 3.184l1.391-8.355c.403-2.34 2.217-11.457 2.418-14.424l-4.796.055s-1.431-.055-2.318-.082l-.06.544c-.161 2.26-.262 3.402-.524 5.389l-2.237 17.744c-3.527 0-8.404-.545-12.173-1.034l1.35-8.192c.404-2.34 2.217-11.457 2.419-14.424zm-9.915 23.323c-1.29 10.042-1.794 22.561-9.513 22.561-2.519 0-4.192-2.721-4.192-6.83 0-9.499 4.797-15.84 11.971-15.84.524 0 1.109.055 1.734.11z" transform="matrix(1.02745 0 0 1.02745 -175.7 -13.228)"/>
        <path style="font-style:normal;font-variant:normal;font-weight:400;font-stretch:normal;font-size:47.9627px;line-height:1.25;font-family:QumpellkaNo12;-inkscape-font-specification:QumpellkaNo12;letter-spacing:0;word-spacing:0;fill:#feffff;fill-opacity:1;stroke:#fff;stroke-width:1.03006;stroke-miterlimit:4;stroke-dasharray:none;stroke-opacity:1" d="M395.455 44.023c-.463 0-2.015.327-2.942 3.184-1.008-2.449-3.023-3.755-6.207-3.755-7.719 0-12.878 6.667-12.878 16.628 0 6.368 3.587 10.614 8.948 10.614 5.139 0 7.517-4.11 8.988-8.274 0 5.307 2.278 8.274 4.716 8.274 1.713 0 3.527-1.47 4.696-4.573l1.773-4.708-.342-.272-1.39 3.647c-.626 1.633-1.815 2.558-2.842 2.558-1.008 0-1.855-.898-1.855-2.885 0-.38.04-.816.101-1.279l.927-4.79c.484-2.313 2.096-11.402 2.298-14.369zm-3.567 4.028c.08.163.101.435.101.735 0 .408-.04.843-.06 1.116l-.363 7.13c-.02.354-.121 1.742-.302 2.313-1.19 4.164-3.326 9.498-7.115 9.498-2.942 0-4.514-2.177-4.514-6.232 0-10.614 3.325-17.69 8.303-17.69 1.39 0 3.104.898 3.95 3.13zM408.273 45.438l-1.33 11.594c-.202 1.85-.564 4.409-.564 6.776 0 4.49 2.498 6.75 5.159 6.75 2.116 0 4.353-1.47 5.481-4.437l1.774-4.708-.343-.272-1.39 3.647c-.544 1.442-2.137 2.558-3.487 2.558-1.149 0-2.136-.844-2.136-2.993 0-.354.04-.735.1-1.17l2.903-17.745h6.167v-1.415h-5.925l1.693-10.369c0-.027.02-.136.02-.163 0-.081-.202-.136-.444-.136h-2.338c-1.854 0-4.252 2.667-4.655 6.042l-.524 4.626h-4.091v1.415z" transform="matrix(1.02745 0 0 1.02745 -175.7 -13.228)"/>
        <path style="font-style:normal;font-weight:400;font-size:35.972px;line-height:1.25;font-family:sans-serif;letter-spacing:-3.88672px;word-spacing:0;fill:#feffff;fill-opacity:1;stroke:#fff;stroke-width:1.03006;stroke-miterlimit:4;stroke-dasharray:none;stroke-opacity:1" d="M421.796 67.319c0 2.286 1.35 4.218 3.124 4.218 1.692 0 3.123-1.823 3.123-4.218 0-2.531-1.25-4.218-3.123-4.218-1.875 0-3.124 1.687-3.124 4.218z" transform="matrix(1.02745 0 0 1.02745 -175.7 -13.228)"/>
        <path style="font-style:normal;font-variant:normal;font-weight:400;font-stretch:normal;font-size:47.9627px;line-height:1.25;font-family:QumpellkaNo12;-inkscape-font-specification:QumpellkaNo12;letter-spacing:0;word-spacing:0;fill:#feffff;fill-opacity:1;stroke:#fff;stroke-width:1.03006;stroke-miterlimit:4;stroke-dasharray:none;stroke-opacity:1" d="M445.638 44.84c3.285 0 4.937 1.333 4.937 6.041 0 1.17-.12 2.558-.322 4.219.161.054.363.081.605.081 1.49 0 4.171-1.143 4.171-4.136 0-4.926-4.454-7.566-9.21-7.566-7.759 0-13.644 5.633-13.644 16.41 0 6.586 3.688 10.805 9.734 10.805 4.374 0 8.142-2.178 10.601-5.879l-.746-.898c-1.612 2.64-5.058 4.926-8.02 4.926-3.709 0-5.341-1.878-5.341-6.64 0-8.682 3.426-17.336 7.235-17.363zM467.101 69.333c-2.66 0-3.91-1.742-3.91-6.096 0-9.199 3.205-18.425 7.437-18.425 2.479 0 3.789 2.45 3.789 7.076 0 9.988-3.104 17.445-7.316 17.445zm3.728-25.881c-7.779 0-13.664 5.66-13.664 16.437 0 6.586 3.668 10.805 9.735 10.805 7.577 0 13.724-6.532 13.724-17.091 0-6.613-3.366-10.151-9.795-10.151z" transform="matrix(1.02745 0 0 1.02745 -175.7 -13.228)"/>
      </g>
    </g>
  </g>
</svg>